<svg width="203" height="50" viewBox="0 0 203 50" fill="none" xmlns="http://www.w3.org/2000/svg">
<path d="M65.1874 -0.000976562V13.3686H60.6524V-0.000976562H56.1174V13.3686H51.5823V-0.000976562H47.0473V13.3686H24.3482V-0.000976562H19.8132V13.3686V17.8225H65.1874V22.2765H60.6524H56.1174H15.2702V-0.000976562H10.7351V22.2843H6.19214V-0.000976562H1.6571V22.2843V26.7382V49.0235H6.19214V35.6539H10.7272V49.0235H15.2622V35.6539H19.7972V49.0235H24.3323V35.6539H47.0234V49.0235H51.5584V35.6539V31.2H15.2702H10.7351H6.19214V26.7461H10.7272H15.2622H56.1014V49.0313H60.6365V26.7382H65.1715V49.0235H69.7225V26.7382V22.2843V17.8304V13.3765V-0.000976562H65.1874Z" fill="#667085"/>
<path d="M90.1689 18.0039V22.7612H79.2589V18.0039H75.6222V31.1048H79.2589V26.3475H90.1689V31.1048H93.8056V18.0039H90.1689Z" fill="#667085"/>
<path d="M159.263 26.3472H155.626V31.1045H159.263V26.3472Z" fill="#667085"/>
<path d="M159.268 18.0039H155.632V22.7612H144.722V18.0039H141.085V31.1048H144.722V26.3475H155.632L159.268 22.7758V18.0039Z" fill="#667085"/>
<path d="M113.191 18.0039H97.4366V31.1048H101.073V26.3475H111.983V31.1048H115.62V18.0039H113.191ZM101.073 22.7758V21.5902H111.983V22.7758H101.073Z" fill="#667085"/>
<path d="M137.444 21.5755V18.0039H122.898H121.69H119.261V31.1048H121.69H122.898H137.444V27.5331H122.898V21.5755H137.444Z" fill="#667085"/>
<path d="M181.091 21.5755V18.0039H166.544H165.337H162.907V31.1048H165.337H166.544H181.091V27.5331H166.544V26.3475H181.091V22.7758H166.544V21.5902H181.091V21.5755Z" fill="#667085"/>
<path d="M199.269 18.0039V26.3329L188.358 18.0039H184.722V31.1048H188.358V22.7758L199.269 31.1048H202.905V18.0039H199.269Z" fill="#667085"/>
</svg>
