<svg width="190" height="50" viewBox="0 0 190 50" fill="none" xmlns="http://www.w3.org/2000/svg">
<path d="M29.5144 14.3064C29.5104 14.9719 28.8936 15.4425 28.2266 15.3729C26.5732 15.2004 25.0584 15.2147 23.6423 15.361C20.5597 15.6794 17.998 16.6222 15.6363 17.4914L15.6311 17.4933C15.4883 17.5459 15.346 17.5982 15.2044 17.6501C12.6967 18.5697 10.386 19.3609 7.64447 19.4236C6.55087 19.4487 5.37246 19.3575 4.0752 19.0987C2.96226 18.8767 2.07331 18.0344 1.85273 16.9296C1.67808 16.0541 1.58643 15.149 1.58643 14.2226C1.58643 6.56994 7.83847 0.366211 15.5505 0.366211C23.2628 0.366211 29.5146 6.56994 29.5146 14.2226C29.5146 14.2506 29.5146 14.2785 29.5144 14.3064Z" fill="#667085"/>
<path d="M2.83122 21.1932C1.78253 20.9433 0.825713 22.0614 1.342 23.0009L15.0488 47.9362C15.2694 48.3375 15.85 48.3375 16.0705 47.9362L31.1991 20.4141C31.7358 19.438 31.2195 18.2152 30.1206 17.9974C27.73 17.5234 25.6932 17.4725 23.8803 17.6598C21.0988 17.9471 18.7885 18.7963 16.3904 19.6778C16.2633 19.7245 16.136 19.7713 16.0085 19.8181C13.4978 20.7388 10.863 21.6617 7.69515 21.7341C6.1896 21.7686 4.58595 21.6115 2.83122 21.1932Z" fill="#667085"/>
<path d="M15.5571 20.466C15.5571 20.1767 15.739 19.9183 16.0124 19.8181C16.1401 19.7713 16.2674 19.7245 16.3945 19.6778C18.7926 18.7963 21.1029 17.9471 23.8844 17.6598C25.6973 17.4725 27.7341 17.5234 30.1247 17.9974C31.2236 18.2152 31.7399 19.438 31.2032 20.4141L16.0744 47.9362C15.963 48.139 15.7596 48.2394 15.5571 48.2372V20.466Z" fill="#667085"/>
<path fill-rule="evenodd" clip-rule="evenodd" d="M64.9757 8.48012C63.187 7.97383 61.5251 7.7207 59.8632 7.7207C56.7953 7.7207 53.9833 8.48012 51.4274 9.74571C48.871 11.1378 46.9537 13.0362 45.5476 15.5675C44.1416 18.0986 43.5024 20.8831 43.5024 24.1735C43.5024 27.4641 44.2695 30.2484 45.6755 32.7797C47.081 35.3108 49.1262 37.2092 51.5547 38.6014C53.9833 39.9936 56.6664 40.753 59.7363 40.753C62.5464 40.753 65.1026 40.2467 67.4051 38.9812C69.7055 37.8421 71.4943 36.0703 72.9003 33.6655C74.3063 31.2608 74.9449 28.4766 74.9449 25.1859V23.7939C74.9449 23.6172 74.9449 23.413 74.9449 23.1942L74.9469 22.9317C74.9469 22.6391 74.7072 22.4017 74.4111 22.4017H61.1625C60.8664 22.4017 60.6267 22.6391 60.6267 22.9317V27.5669C60.6267 27.8597 60.8664 28.097 61.1625 28.097H67.2097C67.4272 28.097 67.5944 28.2891 67.5562 28.5013C67.4293 29.1849 67.25 29.8056 67.0203 30.375C66.5087 31.7672 65.6143 32.653 64.3372 33.4123C63.187 34.0452 61.652 34.425 59.7363 34.425C58.2014 34.425 56.6664 33.9188 55.3893 33.1594C53.9833 32.2734 52.96 31.1343 52.1937 29.6157C51.4274 28.097 51.0435 26.325 51.0435 24.3002C51.0435 22.2751 51.4274 20.5033 52.1937 18.9846C52.96 17.4658 53.9833 16.2003 55.3893 15.4409C56.7953 14.555 58.3303 14.1753 59.9901 14.1753C61.5251 14.1753 63.0581 14.555 64.3372 15.1878C65.4733 15.7502 66.5087 16.7126 67.3527 17.8972C67.5259 18.1418 67.8664 18.2122 68.1162 18.0435L72.8721 14.8332C73.1038 14.6765 73.1743 14.3679 73.0212 14.1345C72.1489 12.8011 70.9786 11.6757 69.7055 10.7582C68.1705 9.74571 66.7645 8.9863 64.9757 8.48012ZM105.914 9.50473L111.619 8.01722C111.957 7.9287 112.289 8.18219 112.289 8.52976V39.7166C112.289 40.0094 112.05 40.2465 111.754 40.2465H106.051C105.755 40.2465 105.515 40.0094 105.515 39.7166V10.0173C105.515 9.77655 105.68 9.56604 105.914 9.50473ZM173.2 22.6546C174.095 22.1484 174.989 21.8953 176.012 21.8953C177.163 21.8953 178.057 22.2751 178.824 22.6546C179.59 23.0344 180.231 23.7937 180.74 24.8062C181.252 25.8186 181.508 26.9577 181.508 28.3499C181.508 29.7421 181.252 30.881 180.74 31.8937C180.357 32.9061 179.719 33.6655 178.824 34.1717C178.057 34.6779 177.034 34.931 176.012 34.931C174.989 34.931 173.966 34.6779 173.2 34.1717C172.433 33.6655 171.794 32.9061 171.283 31.8937C170.771 30.881 170.515 29.7421 170.515 28.3499C170.515 26.9577 170.771 25.8186 171.283 24.8062C171.665 23.9204 172.306 23.1609 173.2 22.6546ZM182.402 17.4657C180.613 16.4533 178.44 15.947 176.012 15.947C173.712 15.947 171.538 16.4533 169.621 17.4657C167.703 18.4782 166.297 19.997 165.147 21.8953C163.997 23.7937 163.485 25.9453 163.485 28.3499C163.485 30.7546 164.126 32.9061 165.147 34.8046C166.17 36.703 167.703 38.2217 169.621 39.2341C171.538 40.2465 173.712 40.7528 176.012 40.7528C178.313 40.7528 180.484 40.2465 182.402 39.2341C184.32 38.2217 185.726 36.703 186.876 34.8046C188.026 32.9061 188.538 30.7546 188.538 28.3499C188.538 25.9453 187.899 23.7937 186.876 21.8953C185.853 19.997 184.32 18.4782 182.402 17.4657ZM134.025 37.8341C134.075 37.7539 134.222 37.7908 134.222 37.8854V39.7168C134.222 40.0096 134.46 40.2467 134.756 40.2467H140.461C140.755 40.2467 140.994 40.0096 140.994 39.7168V17.2367C140.994 16.9439 140.755 16.7067 140.461 16.7067H134.756C134.46 16.7067 134.222 16.9439 134.222 17.2367V19.2737C134.222 19.4477 133.988 19.5207 133.882 19.3827C133.523 18.9207 133.124 18.4915 132.687 18.0988C131.281 16.7067 129.363 16.0738 127.063 16.0738C125.018 16.0738 123.23 16.5801 121.568 17.7192C120.033 18.7317 118.756 20.2504 117.861 22.1488C116.965 24.0472 116.582 26.1986 116.582 28.4768C116.582 30.7548 116.965 32.9063 117.861 34.8048C118.756 36.7032 119.906 38.0954 121.568 39.2345C123.101 40.3734 125.018 40.8796 127.063 40.8796C129.492 40.8796 131.281 40.1203 132.814 39.1078C133.4 38.7215 133.803 38.183 134.025 37.8341ZM131.664 34.0454C130.769 34.5516 129.875 34.8048 128.852 34.8048C127.83 34.8048 126.936 34.5516 126.04 34.0454C125.274 33.5392 124.636 32.7799 124.124 31.7674C123.739 30.7548 123.483 29.6159 123.483 28.3501C123.483 27.0846 123.612 26.0721 124.124 25.0595C124.636 24.1737 125.274 23.4144 126.04 22.9081C126.936 22.4019 127.83 22.1488 128.852 22.1488C129.875 22.1488 130.898 22.4019 131.664 22.9081C132.431 23.4144 133.07 24.047 133.581 25.0595C133.966 25.9455 134.222 27.0846 134.222 28.3501C134.222 29.6159 134.093 30.7548 133.581 31.7674C133.07 32.7799 132.431 33.5392 131.664 34.0454ZM155.869 21.8955C155.772 21.8955 155.691 21.9745 155.691 22.0722V31.1344C155.691 33.2859 156.586 34.4248 158.374 34.4248H160.397C160.693 34.4248 160.931 34.6621 160.931 34.9549V39.7166C160.931 40.0094 160.693 40.2467 160.397 40.2467H157.48C154.797 40.2467 152.623 39.4872 151.217 37.9685C149.684 36.4499 148.917 34.2983 148.917 31.5139V22.0722C148.917 21.9745 148.836 21.8955 148.738 21.8955H144.783C144.417 21.8955 144.159 21.5385 144.276 21.1946L145.696 17.0656C145.771 16.8509 145.974 16.7065 146.204 16.7065H148.738C148.836 16.7065 148.917 16.6274 148.917 16.5298V10.194C148.917 9.95328 149.08 9.74278 149.316 9.68146L155.244 8.13557C155.47 8.07655 155.691 8.24555 155.691 8.47726V16.5298C155.691 16.6274 155.772 16.7065 155.869 16.7065H160.54C160.909 16.7065 161.166 17.0635 161.048 17.4073L159.627 21.5363C159.555 21.7511 159.349 21.8955 159.122 21.8955H155.869ZM89.9742 15.947C92.2746 15.947 94.1923 16.4533 95.8542 17.4657C97.514 18.4782 98.9201 19.997 99.8165 21.8953C100.838 23.7937 101.222 25.9453 101.222 28.3499V29.4653C101.222 29.7579 100.983 29.9953 100.687 29.9953H85.5164C85.3008 29.9953 85.1336 30.1845 85.1699 30.3958C85.2827 31.0292 85.4398 31.5855 85.6272 32.0201C86.1388 33.0326 86.7794 33.7921 87.5448 34.1717C88.3123 34.5514 89.3356 34.931 90.6128 34.931C91.763 34.931 92.9132 34.6779 93.6807 34.2983C94.4199 33.9844 95.0726 33.4114 95.6366 32.7218C95.83 32.4847 96.1825 32.4358 96.4222 32.6281L100.31 35.7486C100.534 35.9281 100.574 36.2514 100.393 36.472C99.3028 37.7912 97.9934 38.7963 96.3638 39.4872C94.575 40.2465 92.6573 40.6263 90.6128 40.6263C88.1834 40.6263 86.0119 40.1201 84.0942 39.1074C82.1765 38.095 80.7705 36.5763 79.7492 34.6779C78.7259 32.7795 78.2142 30.6281 78.2142 28.2233C78.2142 25.8186 78.7259 23.6673 79.7492 21.7689C80.7705 19.8704 82.1765 18.4782 83.9653 17.3392C85.7561 16.4533 87.6738 15.947 89.9742 15.947ZM85.6674 25.5657C85.4418 25.5657 85.2726 25.3615 85.327 25.1451C85.5506 24.2345 85.8769 23.489 86.2657 22.9078C87.0332 21.7687 88.3123 21.136 89.9742 21.136C91.5071 21.136 92.7863 21.7687 93.5517 22.9078C93.9345 23.4754 94.2527 24.2313 94.4763 25.1445C94.5307 25.3613 94.3595 25.5657 94.1359 25.5657H85.6674Z" fill="#667085"/>
</svg>
