<svg width="184" height="50" viewBox="0 0 184 50" fill="none" xmlns="http://www.w3.org/2000/svg">
<path d="M14.7733 0.000989106C12.9319 0.0110237 11.1126 0.39234 9.41383 1.12236C7.71751 1.85489 6.17606 2.92106 4.88291 4.26319C3.58731 5.60532 2.5646 7.19581 1.86886 8.94434C1.17312 10.6929 0.819101 12.5643 0.828935 14.4534V19.2273H12.1599V12.311C12.1599 11.9873 12.2214 11.6637 12.3443 11.3652C12.4648 11.0642 12.6418 10.7932 12.868 10.5624C13.0917 10.3316 13.3572 10.151 13.6497 10.0256C13.9423 9.90014 14.2545 9.83742 14.5717 9.83742H14.9798C15.2969 9.83742 15.6091 9.90014 15.9017 10.0256C16.1942 10.151 16.4597 10.3316 16.6835 10.5624C16.9072 10.7932 17.0842 11.0642 17.2071 11.3652C17.3276 11.6662 17.3915 11.9873 17.3915 12.311V30.8524C18.8789 30.8524 20.3539 30.5514 21.7282 29.9669C23.1025 29.3824 24.3514 28.5269 25.4036 27.4482C26.4558 26.3695 27.2892 25.0875 27.8596 23.6777C28.4299 22.2678 28.7225 20.7551 28.7225 19.2298V14.4559C28.7299 10.6302 27.2622 6.95498 24.639 4.23811C23.3508 2.89598 21.8167 1.83231 20.1228 1.1048C18.424 0.372268 16.6073 -0.00151955 14.7733 0.000989106Z" fill="#667085"/>
<path d="M14.9764 40.2344H14.5683C14.2512 40.2344 13.939 40.1692 13.6464 40.0463C13.3539 39.9209 13.0884 39.7402 12.8646 39.5094C12.6409 39.2786 12.4639 39.0077 12.341 38.7067C12.2205 38.4056 12.1566 38.0845 12.1566 37.7609V19.2194C10.6692 19.2194 9.19418 19.5205 7.8199 20.105C6.44563 20.6895 5.19674 21.545 4.14453 22.6237C3.09231 23.7024 2.2589 24.9843 1.68854 26.3942C1.11818 27.8041 0.825621 29.3168 0.825621 30.842V35.5483C0.805954 37.4398 1.1526 39.3163 1.84588 41.0673C2.53916 42.8209 3.56187 44.4139 4.85993 45.7585C6.15554 47.1031 7.69944 48.1693 9.40069 48.8968C11.1019 49.6243 12.9261 50.0006 14.7699 50.0006C16.6138 50.0006 18.4379 49.6269 20.1392 48.8968C21.8404 48.1693 23.3843 47.1006 24.6799 45.7585C25.9755 44.4139 27.0007 42.8209 27.694 41.0673C28.3873 39.3138 28.7339 37.4373 28.7142 35.5483V30.842H17.3833V37.7584C17.3833 38.082 17.3218 38.4056 17.1989 38.7042C17.0784 39.0052 16.899 39.2761 16.6752 39.5069C16.4515 39.7377 16.186 39.9184 15.8934 40.0438C15.6058 40.1717 15.2936 40.2344 14.9764 40.2344ZM48.0844 14.6763H44.114V35.3451H55.7695V31.4491H48.0868C48.0844 31.4491 48.0844 14.6763 48.0844 14.6763ZM68.4846 22.3327C67.924 21.6177 67.2062 21.0508 66.3924 20.677C65.5762 20.3032 64.6863 20.1326 63.7938 20.1777C62.8621 20.1702 61.9377 20.3684 61.0871 20.7572C60.2365 21.1461 59.4768 21.7206 58.8573 22.4355C57.5322 23.9583 56.7996 25.9301 56.7996 27.9721C56.7996 30.0142 57.5322 31.986 58.8573 33.5087C59.4743 34.2262 60.234 34.7982 61.0871 35.187C61.9377 35.5759 62.8621 35.7741 63.7938 35.7665C65.8098 35.7665 67.3733 35.0491 68.4846 33.6116V35.3526H72.1968V20.5892H68.4846V22.3327ZM67.3488 30.9675C66.9751 31.3513 66.5276 31.6548 66.0335 31.853C65.5418 32.0537 65.0132 32.149 64.4847 32.1315C63.9561 32.149 63.4324 32.0537 62.9408 31.853C62.4515 31.6523 62.0065 31.3488 61.6353 30.965C60.9125 30.1421 60.5118 29.076 60.5118 27.9671C60.5118 26.8608 60.9125 25.7921 61.6353 24.9693C62.0065 24.5855 62.4515 24.2819 62.9408 24.0812C63.43 23.8805 63.9561 23.7852 64.4847 23.8028C65.0132 23.7877 65.5418 23.883 66.0335 24.0812C66.5252 24.2819 66.9726 24.5829 67.3488 24.9668C68.0789 25.7846 68.4846 26.8533 68.4846 27.9646C68.4846 29.081 68.0814 30.1497 67.3488 30.9675ZM81.7626 30.5009L78.0086 20.5791H73.9497L79.8475 34.8709C79.6017 35.7239 79.1149 36.484 78.4511 37.056C77.7529 37.5402 76.917 37.7709 76.0762 37.7057V41.2505C77.7136 41.406 79.3533 40.9494 80.6908 39.9635C81.9249 39.0077 82.9181 37.4749 83.6655 35.3677L88.9118 20.5791H84.9414L81.7626 30.5009ZM96.9485 20.1727C95.9356 20.1351 94.9276 20.3157 93.986 20.6996C93.0444 21.0834 92.1914 21.6629 91.4809 22.4029C90.1066 23.9182 89.3469 25.9125 89.3519 27.9822C89.3568 30.0518 90.1287 32.0412 91.5104 33.5489C92.9486 35.024 94.8588 35.764 97.2386 35.764C99.9994 35.764 102.092 34.7104 103.513 32.6056L100.521 30.8345C100.14 31.3312 99.6478 31.7226 99.0873 31.981C98.5268 32.2394 97.9122 32.3523 97.2976 32.3121C95.0899 32.3121 93.7377 31.3864 93.2387 29.5375H104.088C104.181 29.0208 104.228 28.4965 104.23 27.9721C104.284 25.915 103.547 23.9207 102.173 22.4205C101.506 21.6855 100.698 21.106 99.7978 20.7196C98.898 20.3333 97.9245 20.1451 96.9485 20.1727ZM93.1797 26.5798C93.3444 25.7118 93.8017 24.9317 94.4753 24.3797C95.1882 23.8379 96.0634 23.5619 96.9509 23.597C97.7622 23.587 98.5563 23.8454 99.2102 24.3346C99.9084 24.8865 100.376 25.6868 100.521 26.5773C100.518 26.5798 93.1797 26.5798 93.1797 26.5798ZM110.534 23.1204V20.5816H106.822V35.3451H110.534V28.2882C110.534 26.8708 110.979 25.8573 111.871 25.2477C112.764 24.6381 113.845 24.3848 114.907 24.5403V20.2906C113.973 20.2781 113.054 20.5239 112.245 20.9981C111.446 21.4697 110.839 22.2248 110.534 23.1204ZM133.007 17.8723V14.6763H119.802V18.5747H127.977L119.591 32.0913V35.3451H133.169V31.4491H124.621C124.621 31.4466 133.007 17.8723 133.007 17.8723ZM141.931 20.1727C140.918 20.1351 139.91 20.3157 138.968 20.6996C138.027 21.0834 137.174 21.6629 136.463 22.4029C135.089 23.9182 134.327 25.9125 134.334 27.9822C134.339 30.0518 135.111 32.0412 136.493 33.5489C137.931 35.024 139.841 35.764 142.218 35.764C144.982 35.764 147.071 34.7104 148.492 32.6056L145.5 30.8345C145.119 31.3287 144.628 31.7226 144.067 31.981C143.507 32.2394 142.892 32.3523 142.277 32.3121C140.07 32.3121 138.717 31.3864 138.218 29.5375H149.068C149.161 29.0208 149.208 28.4965 149.21 27.9721C149.267 25.915 148.527 23.9207 147.152 22.4205C146.489 21.6855 145.677 21.106 144.778 20.7196C143.878 20.3333 142.907 20.1451 141.931 20.1727ZM138.162 26.5798C138.327 25.7118 138.784 24.9317 139.457 24.3797C140.17 23.8379 141.046 23.5619 141.933 23.597C142.744 23.587 143.538 23.8454 144.192 24.3346C144.891 24.8865 145.358 25.6868 145.5 26.5773L138.162 26.5798ZM155.514 23.1204V20.5816H151.801V35.3451H155.514V28.2882C155.514 26.8708 155.959 25.8573 156.851 25.2477C157.743 24.6381 158.825 24.3848 159.887 24.5403V20.2906C158.955 20.2781 158.034 20.5239 157.225 20.9981C156.426 21.4697 155.818 22.2248 155.514 23.1204ZM168.354 20.1702C166.611 20.1903 164.929 20.8275 163.595 21.9739C162.26 23.1204 161.35 24.7084 161.025 26.4644C160.701 28.2205 160.976 30.0368 161.81 31.6072C162.643 33.1776 163.978 34.4043 165.591 35.0767C167.204 35.7515 168.996 35.8293 170.66 35.3024C172.324 34.7756 173.758 33.6718 174.721 32.1842C175.685 30.694 176.113 28.9079 175.938 27.1317C175.761 25.3531 174.992 23.6924 173.76 22.4305C173.057 21.693 172.214 21.1135 171.282 20.7246C170.358 20.3358 169.36 20.1476 168.354 20.1702ZM171.144 30.8897C170.781 31.266 170.345 31.5645 169.864 31.7602C169.384 31.9584 168.87 32.0537 168.352 32.0387C167.835 32.0537 167.322 31.9584 166.845 31.7627C166.368 31.5645 165.932 31.2685 165.571 30.8897C164.858 30.092 164.462 29.0484 164.462 27.9671C164.462 26.8859 164.858 25.8423 165.571 25.0445C165.932 24.6657 166.365 24.3697 166.845 24.1715C167.322 23.9733 167.835 23.878 168.352 23.8931C168.868 23.878 169.382 23.9733 169.864 24.1715C170.345 24.3697 170.781 24.6657 171.144 25.042C171.865 25.8348 172.268 26.8809 172.268 27.9646C172.268 29.0509 171.867 30.0945 171.144 30.8897ZM183.766 30.8019H179.247V35.3501H183.766V30.8019Z" fill="#667085"/>
</svg>
