<svg width="126" height="50" viewBox="0 0 126 50" fill="none" xmlns="http://www.w3.org/2000/svg">
<g clip-path="url(#clip0_1_622)">
<path d="M16.1063 33.8283L1.31939 37.2515C0.780051 37.3866 0.375549 37.9272 0.375549 38.4677V48.6472C0.375549 49.5028 1.04972 50.0436 1.90368 49.8634L22.5334 45.0887C23.3873 44.9086 23.7469 44.0977 23.3873 43.3321L19.6569 35.63C19.0726 34.4138 19.6569 33.1527 20.9603 32.8824L34.4438 29.6394C35.3876 29.4142 36.1966 28.4233 36.1966 27.4323V18.0185C36.1966 17.1627 35.5225 16.5772 34.6686 16.8024L15.2074 21.4417C13.9939 21.712 13.4545 22.8831 13.9939 24.0091L17.4097 31.0808C17.994 32.2969 17.4097 33.513 16.1063 33.8283Z" fill="#667085"/>
<path d="M6.35714 8.38127L10.2224 16.3087C10.7168 17.3446 10.2224 18.4257 9.0988 18.6509L1.95255 20.3174C1.05365 20.5427 0.334534 21.4435 0.334534 22.3443V30.8573C0.334534 32.2986 1.5031 33.1995 2.89639 32.8842L9.54825 31.3527C10.4471 31.1726 11.1663 30.2267 11.1663 29.3258L11.2112 20.5877C11.2112 19.3715 12.2 18.1554 13.3686 17.8852L35.1669 12.6603C35.7062 12.5251 36.1107 11.9846 36.1107 11.4441V1.26461C36.1107 0.408816 35.4365 -0.176733 34.5826 0.0484781L7.21112 6.62461C6.35714 6.8048 5.99759 7.61554 6.35714 8.38127Z" fill="#667085"/>
<path d="M73.1068 32.0784H60.6569V12.4751H54.9107V37.4248H73.1068V32.0784Z" fill="#667085"/>
<path d="M76.8482 37.4243H82.5944V12.4746H76.8482V37.4243Z" fill="#667085"/>
<path d="M86.8892 37.4255H92.3513V31.9365H86.8892V37.4255Z" fill="#667085"/>
<path d="M102.376 27.6939H114.4V22.7753H102.376V17.5359H115.429V12.4746H96.6295V37.4243H102.376V27.6939Z" fill="#667085"/>
<path d="M119.331 37.4248H125.077V12.4751H119.331V37.4248Z" fill="#667085"/>
</g>
<defs>
<clipPath id="clip0_1_622">
<rect width="125.138" height="49.8994" fill="white" transform="translate(0.334534)"/>
</clipPath>
</defs>
</svg>
