<svg width="25" height="25" viewBox="0 0 25 25" fill="none" xmlns="http://www.w3.org/2000/svg">
<path d="M17.8974 20.1104C16.1889 21.3517 14.1314 22.0203 12.0196 22.0203C9.90778 22.0203 7.85019 21.3517 6.14172 20.1104M16.4033 3.03232C18.3013 3.95807 19.8576 5.46095 20.849 7.32555C21.8405 9.19015 22.2162 11.3208 21.9222 13.412M2.11698 13.4119C1.82308 11.3207 2.19876 9.19005 3.19019 7.32545C4.18161 5.46085 5.73789 3.95798 7.63595 3.03223M11.4539 6.58595L6.58525 11.4546C6.38724 11.6526 6.28824 11.7516 6.25115 11.8658C6.21852 11.9662 6.21852 12.0744 6.25115 12.1748C6.28824 12.2889 6.38724 12.3879 6.58525 12.586L11.4539 17.4546C11.6519 17.6526 11.7509 17.7516 11.8651 17.7887C11.9655 17.8213 12.0737 17.8213 12.1741 17.7887C12.2882 17.7516 12.3872 17.6526 12.5853 17.4546L17.4539 12.586C17.6519 12.3879 17.7509 12.2889 17.788 12.1748C17.8206 12.0744 17.8206 11.9662 17.788 11.8658C17.7509 11.7516 17.6519 11.6526 17.4539 11.4546L12.5853 6.58595C12.3872 6.38794 12.2882 6.28894 12.1741 6.25184C12.0737 6.21921 11.9655 6.21921 11.8651 6.25184C11.7509 6.28894 11.6519 6.38794 11.4539 6.58595Z" stroke="url(#paint0_linear_1_472)" stroke-width="2" stroke-linecap="round" stroke-linejoin="round"/>
<defs>
<linearGradient id="paint0_linear_1_472" x1="0.0898365" y1="-1.54525" x2="29.9714" y2="3.56399" gradientUnits="userSpaceOnUse">
<stop stop-color="#F328A5"/>
<stop offset="1" stop-color="#9322D0"/>
</linearGradient>
</defs>
</svg>
