<svg width="178" height="30" viewBox="0 0 178 30" fill="none" xmlns="http://www.w3.org/2000/svg">
<path d="M0.336 23V0.599998H9.232C10.5973 0.599998 11.8133 0.877332 12.88 1.432C13.968 1.96533 14.8107 2.73333 15.408 3.736C16.0267 4.71733 16.336 5.90133 16.336 7.288V7.704C16.336 9.09067 16.016 10.2853 15.376 11.288C14.7573 12.2907 13.9147 13.0587 12.848 13.592C11.7813 14.1253 10.576 14.392 9.232 14.392H3.792V23H0.336ZM3.792 11.256H8.88C10.096 11.256 11.0667 10.936 11.792 10.296C12.5173 9.656 12.88 8.78133 12.88 7.672V7.352C12.88 6.22133 12.5173 5.336 11.792 4.696C11.0667 4.056 10.096 3.736 8.88 3.736H3.792V11.256ZM26.6678 23.448C25.0891 23.448 23.6811 23.128 22.4438 22.488C21.2278 21.8267 20.2678 20.888 19.5638 19.672C18.8598 18.456 18.5078 17.016 18.5078 15.352V14.872C18.5078 13.208 18.8598 11.7787 19.5638 10.584C20.2678 9.368 21.2278 8.42933 22.4438 7.768C23.6811 7.10667 25.0891 6.776 26.6678 6.776C28.2464 6.776 29.6544 7.10667 30.8918 7.768C32.1291 8.42933 33.0998 9.368 33.8038 10.584C34.5078 11.7787 34.8598 13.208 34.8598 14.872V15.352C34.8598 17.016 34.5078 18.456 33.8038 19.672C33.0998 20.888 32.1291 21.8267 30.8918 22.488C29.6544 23.128 28.2464 23.448 26.6678 23.448ZM26.6678 20.504C28.1184 20.504 29.2918 20.0453 30.1878 19.128C31.1051 18.1893 31.5638 16.8987 31.5638 15.256V14.968C31.5638 13.3253 31.1158 12.0453 30.2198 11.128C29.3238 10.1893 28.1398 9.72 26.6678 9.72C25.2384 9.72 24.0651 10.1893 23.1478 11.128C22.2518 12.0453 21.8038 13.3253 21.8038 14.968V15.256C21.8038 16.8987 22.2518 18.1893 23.1478 19.128C24.0651 20.0453 25.2384 20.504 26.6678 20.504ZM40.5038 23L37.8158 7.224H41.1118L43.0958 20.792H43.6078L46.3598 7.224H51.7038L54.4237 20.792H54.9358L56.9198 7.224H60.2158L57.5278 23H51.9918L49.2718 9.464H48.7598L46.0398 23H40.5038ZM71.164 23.448C69.564 23.448 68.1667 23.1173 66.972 22.456C65.7773 21.7733 64.8387 20.824 64.156 19.608C63.4947 18.3707 63.164 16.9413 63.164 15.32V14.936C63.164 13.2933 63.4947 11.864 64.156 10.648C64.8173 9.41067 65.7347 8.46133 66.908 7.8C68.1027 7.11733 69.4787 6.776 71.036 6.776C72.5507 6.776 73.8733 7.11733 75.004 7.8C76.156 8.46133 77.052 9.38933 77.692 10.584C78.332 11.7787 78.652 13.176 78.652 14.776V16.024H66.524C66.5667 17.4107 67.0253 18.52 67.9 19.352C68.796 20.1627 69.9053 20.568 71.228 20.568C72.4653 20.568 73.3933 20.2907 74.012 19.736C74.652 19.1813 75.1427 18.5413 75.484 17.816L78.204 19.224C77.9053 19.8213 77.468 20.4507 76.892 21.112C76.3373 21.7733 75.6013 22.328 74.684 22.776C73.7667 23.224 72.5933 23.448 71.164 23.448ZM66.556 13.496H75.292C75.2067 12.3013 74.78 11.3733 74.012 10.712C73.244 10.0293 72.2413 9.688 71.004 9.688C69.7667 9.688 68.7533 10.0293 67.964 10.712C67.196 11.3733 66.7267 12.3013 66.556 13.496ZM82.6195 23V7.224H85.8515V9.08H86.3635C86.6195 8.41867 87.0248 7.93867 87.5795 7.64C88.1555 7.32 88.8595 7.16 89.6915 7.16H91.5795V10.136H89.5635C88.4968 10.136 87.6222 10.4347 86.9395 11.032C86.2568 11.608 85.9155 12.504 85.9155 13.72V23H82.6195ZM101.664 23.448C100.064 23.448 98.6667 23.1173 97.472 22.456C96.2773 21.7733 95.3387 20.824 94.656 19.608C93.9947 18.3707 93.664 16.9413 93.664 15.32V14.936C93.664 13.2933 93.9947 11.864 94.656 10.648C95.3173 9.41067 96.2347 8.46133 97.408 7.8C98.6027 7.11733 99.9787 6.776 101.536 6.776C103.051 6.776 104.373 7.11733 105.504 7.8C106.656 8.46133 107.552 9.38933 108.192 10.584C108.832 11.7787 109.152 13.176 109.152 14.776V16.024H97.024C97.0667 17.4107 97.5253 18.52 98.4 19.352C99.296 20.1627 100.405 20.568 101.728 20.568C102.965 20.568 103.893 20.2907 104.512 19.736C105.152 19.1813 105.643 18.5413 105.984 17.816L108.704 19.224C108.405 19.8213 107.968 20.4507 107.392 21.112C106.837 21.7733 106.101 22.328 105.184 22.776C104.267 23.224 103.093 23.448 101.664 23.448ZM97.056 13.496H105.792C105.707 12.3013 105.28 11.3733 104.512 10.712C103.744 10.0293 102.741 9.688 101.504 9.688C100.267 9.688 99.2533 10.0293 98.464 10.712C97.696 11.3733 97.2267 12.3013 97.056 13.496ZM119.648 23.448C118.346 23.448 117.141 23.128 116.032 22.488C114.922 21.848 114.026 20.9307 113.344 19.736C112.682 18.52 112.352 17.0587 112.352 15.352V14.872C112.352 13.1867 112.682 11.736 113.344 10.52C114.005 9.304 114.89 8.376 116 7.736C117.109 7.096 118.325 6.776 119.648 6.776C120.672 6.776 121.525 6.904 122.208 7.16C122.912 7.416 123.488 7.74667 123.936 8.152C124.384 8.536 124.725 8.94133 124.96 9.368H125.472V0.599998H128.767V23H125.536V20.76H125.024C124.618 21.4427 124 22.0613 123.168 22.616C122.357 23.1707 121.184 23.448 119.648 23.448ZM120.576 20.568C122.005 20.568 123.178 20.1093 124.096 19.192C125.034 18.2747 125.504 16.9627 125.504 15.256V14.968C125.504 13.2827 125.045 11.9813 124.128 11.064C123.21 10.1467 122.026 9.688 120.576 9.688C119.168 9.688 117.994 10.1467 117.056 11.064C116.138 11.9813 115.68 13.2827 115.68 14.968V15.256C115.68 16.9627 116.138 18.2747 117.056 19.192C117.994 20.1093 119.168 20.568 120.576 20.568ZM150.896 23.448C149.36 23.448 148.176 23.1707 147.344 22.616C146.533 22.0613 145.925 21.4427 145.52 20.76H145.008V23H141.776V0.599998H145.072V9.368H145.584C145.84 8.94133 146.181 8.536 146.608 8.152C147.034 7.74667 147.6 7.416 148.304 7.16C149.008 6.904 149.872 6.776 150.896 6.776C152.218 6.776 153.434 7.096 154.544 7.736C155.653 8.376 156.538 9.304 157.2 10.52C157.861 11.736 158.192 13.1867 158.192 14.872V15.352C158.192 17.0587 157.85 18.52 157.168 19.736C156.506 20.9307 155.621 21.848 154.512 22.488C153.424 23.128 152.218 23.448 150.896 23.448ZM149.936 20.568C151.365 20.568 152.538 20.1093 153.456 19.192C154.394 18.2747 154.864 16.9627 154.864 15.256V14.968C154.864 13.2827 154.405 11.9813 153.488 11.064C152.57 10.1467 151.386 9.688 149.936 9.688C148.528 9.688 147.354 10.1467 146.416 11.064C145.498 11.9813 145.04 13.2827 145.04 14.968V15.256C145.04 16.9627 145.498 18.2747 146.416 19.192C147.354 20.1093 148.528 20.568 149.936 20.568ZM164.1 29.4V26.52H172.9C173.497 26.52 173.796 26.2 173.796 25.56V20.696H173.284C173.092 21.1227 172.793 21.5387 172.388 21.944C172.004 22.328 171.481 22.648 170.82 22.904C170.158 23.16 169.326 23.288 168.324 23.288C167.129 23.288 166.062 23.0213 165.124 22.488C164.185 21.9547 163.449 21.1973 162.916 20.216C162.382 19.2347 162.116 18.072 162.116 16.728V7.224H165.412V16.472C165.412 17.8373 165.753 18.8507 166.436 19.512C167.118 20.152 168.068 20.472 169.284 20.472C170.628 20.472 171.705 20.024 172.516 19.128C173.348 18.232 173.764 16.9307 173.764 15.224V7.224H177.06V26.232C177.06 27.192 176.772 27.96 176.196 28.536C175.641 29.112 174.873 29.4 173.892 29.4H164.1Z" fill="#667085"/>
</svg>
