<svg width="236" height="50" viewBox="0 0 236 50" fill="none" xmlns="http://www.w3.org/2000/svg">
<g clip-path="url(#clip0_1_606)">
<path d="M48.3774 14.2539L27.8582 0.546875V8.21053L41.0215 16.9252L39.4729 21.9175H27.8582V28.2674H39.4729L41.0215 33.2598L27.8582 41.9744V49.6382L48.3774 35.975L45.022 25.1144L48.3774 14.2539Z" fill="url(#paint0_linear_1_606)"/>
<path d="M10.0051 28.2674H21.5768V21.9175H9.96212L8.45651 16.9252L21.5768 8.21053V0.546875L1.05756 14.2539L4.41291 25.1144L1.05756 35.975L21.6198 49.6382V41.9744L8.45651 33.2598L10.0051 28.2674Z" fill="#667085"/>
<mask id="mask0_1_606" style="mask-type:alpha" maskUnits="userSpaceOnUse" x="1" y="0" width="48" height="50">
<path d="M48.3793 14.251L27.8601 0.543945V8.2076L41.0234 16.9223L39.4749 21.9146H27.8601V28.2644H39.4749L41.0234 33.2568L27.8601 41.9714V49.6353L48.3793 35.972L45.0242 25.1115L48.3793 14.251Z" fill="url(#paint1_linear_1_606)"/>
<path d="M10.0067 28.2644H21.5784V21.9146H9.9637L8.45811 16.9223L21.5784 8.2076V0.543945L1.05914 14.251L4.41448 25.1115L1.05914 35.972L21.6214 49.6353V41.9714L8.45811 33.2568L10.0067 28.2644Z" fill="url(#paint2_linear_1_606)"/>
</mask>
<g mask="url(#mask0_1_606)">
<path d="M48.0722 0.543945H1.09235V49.6353H48.0722V0.543945Z" fill="#667085"/>
</g>
<path d="M89.2048 14.0469V18.3387H69.7915V22.7303H86.2863V27.022H69.7915V31.8461H89.2048V36.138H64.8113V14.0469H89.2048Z" fill="#667085"/>
<path d="M91.9578 36.138L103.111 24.9592L92.2739 14.0469H99.1302L106.777 21.9318L114.107 14.0469H120.521L109.715 24.9592L120.868 36.138H113.949L106.777 28.0201L98.593 36.138H91.9578Z" fill="#667085"/>
<path d="M134.241 14.0469C143.278 14.0469 148.712 18.6572 148.712 25.0924C148.712 31.5276 143.278 36.138 134.241 36.138C125.205 36.138 119.802 31.5276 119.802 25.0924C119.802 18.6572 125.205 14.0469 134.241 14.0469ZM134.241 18.1769C128.807 18.1769 124.801 20.9623 124.801 25.0924C124.801 29.2224 128.807 32.0079 134.241 32.0079C139.707 32.0079 143.713 29.2224 143.713 25.0924C143.713 20.9623 139.707 18.1769 134.241 18.1769Z" fill="#667085"/>
<path d="M166.717 14.0469C173.955 14.0469 178.316 18.139 178.316 25.0592C178.316 32.0457 173.986 36.138 166.78 36.138H152.116V14.0469H166.717ZM173.196 25.0592C173.196 20.7341 170.668 18.3387 166.085 18.3387H157.078V31.8461H166.085C170.668 31.8461 173.196 29.4175 173.196 25.0592Z" fill="#667085"/>
<path d="M194.736 36.138C187.114 36.138 181.335 32.6138 181.335 26.1202V14.0469H186.321V25.6308C186.321 29.6444 190.417 31.5044 194.736 31.5044C199.087 31.5044 203.183 29.6769 203.183 25.6308V14.0469H208.137V26.1202C208.137 32.6138 202.389 36.138 194.736 36.138Z" fill="#667085"/>
<path d="M222.091 36.138C217.997 36.138 213.583 35.3696 210.448 33.9289L212.079 29.8307C214.894 31.1434 218.765 31.9759 222.251 31.9759C226.25 31.9759 229.992 31.1114 229.992 29.5746C229.992 28.4541 228.809 27.9737 226.346 27.5896L219.373 26.8212C213.999 26.0848 211.376 24.196 211.376 20.8663C211.376 16.5761 215.822 14.0469 222.347 14.0469C226.282 14.0469 231.688 14.7832 234.471 16.0639L232.839 19.9698C230.088 18.8172 225.418 18.241 222.124 18.241C218.733 18.241 216.494 19.0414 216.494 20.5141C216.494 21.5386 217.613 22.0509 220.492 22.4671L227.273 23.2355C232.455 23.9718 235.143 25.7647 235.143 29.2545C235.143 33.6726 229.449 36.138 222.091 36.138Z" fill="#667085"/>
</g>
<defs>
<linearGradient id="paint0_linear_1_606" x1="41.7395" y1="53.0132" x2="27.5025" y2="-4.72293" gradientUnits="userSpaceOnUse">
<stop stop-color="#0B46F9"/>
<stop offset="1" stop-color="#BBFBE0"/>
</linearGradient>
<linearGradient id="paint1_linear_1_606" x1="41.7415" y1="53.0103" x2="27.5044" y2="-4.72586" gradientUnits="userSpaceOnUse">
<stop stop-color="#0B46F9"/>
<stop offset="1" stop-color="#BBFBE0"/>
</linearGradient>
<linearGradient id="paint2_linear_1_606" x1="41.7402" y1="53.0103" x2="27.5031" y2="-4.72586" gradientUnits="userSpaceOnUse">
<stop stop-color="#0B46F9"/>
<stop offset="1" stop-color="#BBFBE0"/>
</linearGradient>
<clipPath id="clip0_1_606">
<rect width="234.661" height="49.2498" fill="white" transform="translate(0.483154 0.54541)"/>
</clipPath>
</defs>
</svg>
