<svg width="713" height="613" viewBox="0 0 713 613" fill="none" xmlns="http://www.w3.org/2000/svg">
<path d="M669 511.724C669 524.728 657.782 534.894 644.841 533.618L199.841 489.744C188.582 488.634 180 479.164 180 467.85L180 225C180 212.85 189.85 203 202 203L647 203C659.15 203 669 212.85 669 225L669 511.724Z" fill="url(#paint0_linear_1_395)"/>
<path d="M45.3138 71.4114C44.61 58.4287 55.2585 47.6707 68.2478 48.2418L528.057 68.4564C539.362 68.9534 548.446 77.9451 549.059 89.2443L562.586 338.77C563.244 350.903 553.941 361.271 541.809 361.929L84.4393 386.723C72.3069 387.381 61.9384 378.079 61.2807 365.946L45.3138 71.4114Z" fill="url(#paint1_linear_1_395)"/>
<g filter="url(#filter0_d_1_395)">
<path d="M88 120.959C88 99.2427 107.083 82.4698 128.621 85.2572L593.621 145.439C611.567 147.761 625 163.045 625 181.141V414.051C625 431.848 611.997 446.974 594.402 449.644L129.402 520.216C107.617 523.523 88 506.658 88 484.624V120.959Z" fill="url(#paint2_linear_1_395)"/>
</g>
<path d="M131.3 172V137H146.5C148.7 137 150.617 137.383 152.25 138.15C153.883 138.917 155.15 140 156.05 141.4C156.95 142.8 157.4 144.45 157.4 146.35V146.95C157.4 149.05 156.9 150.75 155.9 152.05C154.9 153.35 153.667 154.3 152.2 154.9V155.8C153.533 155.867 154.567 156.333 155.3 157.2C156.033 158.033 156.4 159.15 156.4 160.55V172H149.8V161.5C149.8 160.7 149.583 160.05 149.15 159.55C148.75 159.05 148.067 158.8 147.1 158.8H137.9V172H131.3ZM137.9 152.8H145.8C147.367 152.8 148.583 152.383 149.45 151.55C150.35 150.683 150.8 149.55 150.8 148.15V147.65C150.8 146.25 150.367 145.133 149.5 144.3C148.633 143.433 147.4 143 145.8 143H137.9V152.8ZM174.892 172.7C172.425 172.7 170.208 172.2 168.242 171.2C166.275 170.2 164.725 168.75 163.592 166.85C162.458 164.95 161.892 162.667 161.892 160V159.2C161.892 156.533 162.458 154.25 163.592 152.35C164.725 150.45 166.275 149 168.242 148C170.208 147 172.425 146.5 174.892 146.5C177.358 146.5 179.575 147 181.542 148C183.508 149 185.058 150.45 186.192 152.35C187.325 154.25 187.892 156.533 187.892 159.2V160C187.892 162.667 187.325 164.95 186.192 166.85C185.058 168.75 183.508 170.2 181.542 171.2C179.575 172.2 177.358 172.7 174.892 172.7ZM174.892 167.1C176.825 167.1 178.425 166.483 179.692 165.25C180.958 163.983 181.592 162.183 181.592 159.85V159.35C181.592 157.017 180.958 155.233 179.692 154C178.458 152.733 176.858 152.1 174.892 152.1C172.958 152.1 171.358 152.733 170.092 154C168.825 155.233 168.192 157.017 168.192 159.35V159.85C168.192 162.183 168.825 163.983 170.092 165.25C171.358 166.483 172.958 167.1 174.892 167.1ZM203.157 172.4C201.224 172.4 199.524 171.967 198.057 171.1C196.624 170.2 195.507 168.967 194.707 167.4C193.907 165.833 193.507 164.033 193.507 162V147.2H199.807V161.5C199.807 163.367 200.257 164.767 201.157 165.7C202.09 166.633 203.407 167.1 205.107 167.1C207.04 167.1 208.54 166.467 209.607 165.2C210.674 163.9 211.207 162.1 211.207 159.8V147.2H217.507V172H211.307V168.75H210.407C210.007 169.583 209.257 170.4 208.157 171.2C207.057 172 205.39 172.4 203.157 172.4ZM224.518 172V147.2H230.718V150.45H231.618C232.018 149.583 232.768 148.767 233.868 148C234.968 147.2 236.634 146.8 238.868 146.8C240.801 146.8 242.484 147.25 243.918 148.15C245.384 149.017 246.518 150.233 247.318 151.8C248.118 153.333 248.518 155.133 248.518 157.2V172H242.218V157.7C242.218 155.833 241.751 154.433 240.818 153.5C239.918 152.567 238.618 152.1 236.918 152.1C234.984 152.1 233.484 152.75 232.418 154.05C231.351 155.317 230.818 157.1 230.818 159.4V172H224.518ZM265.328 172.7C263.361 172.7 261.511 172.217 259.778 171.25C258.078 170.25 256.711 168.8 255.678 166.9C254.645 165 254.128 162.7 254.128 160V159.2C254.128 156.5 254.645 154.2 255.678 152.3C256.711 150.4 258.078 148.967 259.778 148C261.478 147 263.328 146.5 265.328 146.5C266.828 146.5 268.078 146.683 269.078 147.05C270.111 147.383 270.945 147.817 271.578 148.35C272.211 148.883 272.695 149.45 273.028 150.05H273.928V137H280.228V172H274.028V169H273.128C272.561 169.933 271.678 170.783 270.478 171.55C269.311 172.317 267.595 172.7 265.328 172.7ZM267.228 167.2C269.161 167.2 270.778 166.583 272.078 165.35C273.378 164.083 274.028 162.25 274.028 159.85V159.35C274.028 156.95 273.378 155.133 272.078 153.9C270.811 152.633 269.195 152 267.228 152C265.295 152 263.678 152.633 262.378 153.9C261.078 155.133 260.428 156.95 260.428 159.35V159.85C260.428 162.25 261.078 164.083 262.378 165.35C263.678 166.583 265.295 167.2 267.228 167.2ZM298.508 172V167.8C298.508 165.367 298.908 163.35 299.708 161.75C300.508 160.117 301.658 158.783 303.158 157.75C304.692 156.683 306.558 155.817 308.758 155.15L312.108 154.1C313.342 153.7 314.375 153.217 315.208 152.65C316.042 152.05 316.675 151.333 317.108 150.5C317.575 149.667 317.808 148.717 317.808 147.65V147.45C317.808 145.783 317.242 144.467 316.108 143.5C314.975 142.5 313.425 142 311.458 142C309.525 142 307.958 142.533 306.758 143.6C305.592 144.633 305.008 146.133 305.008 148.1V149H298.608V148.2C298.608 145.667 299.175 143.517 300.308 141.75C301.442 139.983 302.975 138.633 304.908 137.7C306.875 136.767 309.058 136.3 311.458 136.3C313.858 136.3 316.025 136.767 317.958 137.7C319.892 138.6 321.408 139.883 322.508 141.55C323.642 143.183 324.208 145.117 324.208 147.35V147.85C324.208 150.083 323.742 151.983 322.808 153.55C321.908 155.083 320.675 156.35 319.108 157.35C317.542 158.317 315.758 159.117 313.758 159.75L310.558 160.75C309.125 161.183 308.008 161.667 307.208 162.2C306.408 162.7 305.842 163.267 305.508 163.9C305.208 164.5 305.058 165.233 305.058 166.1V166.3H323.908V172H298.508Z" fill="white"/>
<path d="M132.354 218.696C131.617 218.696 130.963 218.565 130.394 218.304C129.825 218.043 129.377 217.66 129.05 217.156C128.733 216.643 128.574 216.022 128.574 215.294V214.944H130.072V215.294C130.072 215.985 130.277 216.503 130.688 216.848C131.108 217.193 131.663 217.366 132.354 217.366C133.054 217.366 133.581 217.221 133.936 216.932C134.291 216.633 134.468 216.251 134.468 215.784C134.468 215.476 134.384 215.224 134.216 215.028C134.048 214.832 133.81 214.678 133.502 214.566C133.194 214.445 132.825 214.333 132.396 214.23L131.878 214.104C131.253 213.955 130.707 213.773 130.24 213.558C129.783 213.334 129.428 213.04 129.176 212.676C128.924 212.312 128.798 211.845 128.798 211.276C128.798 210.697 128.938 210.203 129.218 209.792C129.507 209.381 129.904 209.064 130.408 208.84C130.912 208.616 131.505 208.504 132.186 208.504C132.867 208.504 133.474 208.621 134.006 208.854C134.547 209.087 134.972 209.433 135.28 209.89C135.588 210.347 135.742 210.921 135.742 211.612V212.116H134.244V211.612C134.244 211.192 134.155 210.851 133.978 210.59C133.81 210.329 133.572 210.137 133.264 210.016C132.956 209.895 132.597 209.834 132.186 209.834C131.589 209.834 131.122 209.96 130.786 210.212C130.459 210.455 130.296 210.795 130.296 211.234C130.296 211.533 130.366 211.78 130.506 211.976C130.655 212.163 130.87 212.317 131.15 212.438C131.43 212.559 131.78 212.667 132.2 212.76L132.718 212.886C133.353 213.026 133.913 213.208 134.398 213.432C134.883 213.647 135.266 213.941 135.546 214.314C135.826 214.687 135.966 215.168 135.966 215.756C135.966 216.344 135.817 216.857 135.518 217.296C135.229 217.735 134.813 218.08 134.272 218.332C133.731 218.575 133.091 218.696 132.354 218.696ZM139.737 218.696C139.243 218.696 138.799 218.612 138.407 218.444C138.025 218.276 137.717 218.029 137.483 217.702C137.259 217.375 137.147 216.979 137.147 216.512C137.147 216.036 137.259 215.644 137.483 215.336C137.717 215.019 138.029 214.781 138.421 214.622C138.823 214.463 139.275 214.384 139.779 214.384H141.879V213.936C141.879 213.535 141.758 213.213 141.515 212.97C141.273 212.727 140.899 212.606 140.395 212.606C139.901 212.606 139.523 212.723 139.261 212.956C139 213.189 138.827 213.493 138.743 213.866L137.399 213.432C137.511 213.059 137.689 212.723 137.931 212.424C138.183 212.116 138.515 211.869 138.925 211.682C139.336 211.495 139.831 211.402 140.409 211.402C141.305 211.402 142.01 211.631 142.523 212.088C143.037 212.545 143.293 213.194 143.293 214.034V216.876C143.293 217.156 143.424 217.296 143.685 217.296H144.273V218.5H143.195C142.869 218.5 142.603 218.416 142.397 218.248C142.192 218.08 142.089 217.851 142.089 217.562V217.52H141.879C141.805 217.66 141.693 217.823 141.543 218.01C141.394 218.197 141.175 218.36 140.885 218.5C140.596 218.631 140.213 218.696 139.737 218.696ZM139.947 217.506C140.526 217.506 140.993 217.343 141.347 217.016C141.702 216.68 141.879 216.223 141.879 215.644V215.504H139.863C139.481 215.504 139.173 215.588 138.939 215.756C138.706 215.915 138.589 216.153 138.589 216.47C138.589 216.787 138.711 217.039 138.953 217.226C139.196 217.413 139.527 217.506 139.947 217.506ZM145.675 218.5V208.7H147.117V218.5H145.675ZM152.421 218.696C151.721 218.696 151.11 218.551 150.587 218.262C150.065 217.963 149.654 217.548 149.355 217.016C149.066 216.475 148.921 215.849 148.921 215.14V214.972C148.921 214.253 149.066 213.628 149.355 213.096C149.645 212.555 150.046 212.139 150.559 211.85C151.082 211.551 151.684 211.402 152.365 211.402C153.028 211.402 153.607 211.551 154.101 211.85C154.605 212.139 154.997 212.545 155.277 213.068C155.557 213.591 155.697 214.202 155.697 214.902V215.448H150.391C150.41 216.055 150.611 216.54 150.993 216.904C151.385 217.259 151.871 217.436 152.449 217.436C152.991 217.436 153.397 217.315 153.667 217.072C153.947 216.829 154.162 216.549 154.311 216.232L155.501 216.848C155.371 217.109 155.179 217.385 154.927 217.674C154.685 217.963 154.363 218.206 153.961 218.402C153.56 218.598 153.047 218.696 152.421 218.696ZM150.405 214.342H154.227C154.19 213.819 154.003 213.413 153.667 213.124C153.331 212.825 152.893 212.676 152.351 212.676C151.81 212.676 151.367 212.825 151.021 213.124C150.685 213.413 150.48 213.819 150.405 214.342ZM160.96 218.5V208.7H164.852C165.449 208.7 165.981 208.821 166.448 209.064C166.924 209.297 167.292 209.633 167.554 210.072C167.824 210.501 167.96 211.019 167.96 211.626V211.808C167.96 212.415 167.82 212.937 167.54 213.376C167.269 213.815 166.9 214.151 166.434 214.384C165.967 214.617 165.44 214.734 164.852 214.734H162.472V218.5H160.96ZM162.472 213.362H164.698C165.23 213.362 165.654 213.222 165.972 212.942C166.289 212.662 166.448 212.279 166.448 211.794V211.654C166.448 211.159 166.289 210.772 165.972 210.492C165.654 210.212 165.23 210.072 164.698 210.072H162.472V213.362ZM169.437 218.5V211.598H170.851V212.41H171.075C171.187 212.121 171.364 211.911 171.607 211.78C171.859 211.64 172.167 211.57 172.531 211.57H173.357V212.872H172.475C172.008 212.872 171.626 213.003 171.327 213.264C171.028 213.516 170.879 213.908 170.879 214.44V218.5H169.437ZM174.851 218.5V211.598H176.293V218.5H174.851ZM175.579 210.66C175.299 210.66 175.061 210.571 174.865 210.394C174.678 210.207 174.585 209.969 174.585 209.68C174.585 209.391 174.678 209.157 174.865 208.98C175.061 208.793 175.299 208.7 175.579 208.7C175.868 208.7 176.106 208.793 176.293 208.98C176.48 209.157 176.573 209.391 176.573 209.68C176.573 209.969 176.48 210.207 176.293 210.394C176.106 210.571 175.868 210.66 175.579 210.66ZM181.639 218.696C180.976 218.696 180.374 218.556 179.833 218.276C179.301 217.996 178.876 217.59 178.559 217.058C178.251 216.526 178.097 215.887 178.097 215.14V214.958C178.097 214.211 178.251 213.577 178.559 213.054C178.876 212.522 179.301 212.116 179.833 211.836C180.374 211.547 180.976 211.402 181.639 211.402C182.302 211.402 182.866 211.523 183.333 211.766C183.8 212.009 184.173 212.331 184.453 212.732C184.742 213.133 184.929 213.577 185.013 214.062L183.613 214.356C183.566 214.048 183.468 213.768 183.319 213.516C183.17 213.264 182.96 213.063 182.689 212.914C182.418 212.765 182.078 212.69 181.667 212.69C181.266 212.69 180.902 212.783 180.575 212.97C180.258 213.147 180.006 213.409 179.819 213.754C179.632 214.09 179.539 214.501 179.539 214.986V215.112C179.539 215.597 179.632 216.013 179.819 216.358C180.006 216.703 180.258 216.965 180.575 217.142C180.902 217.319 181.266 217.408 181.667 217.408C182.274 217.408 182.736 217.254 183.053 216.946C183.37 216.629 183.571 216.227 183.655 215.742L185.055 216.064C184.943 216.54 184.742 216.979 184.453 217.38C184.173 217.781 183.8 218.103 183.333 218.346C182.866 218.579 182.302 218.696 181.639 218.696ZM189.882 218.696C189.182 218.696 188.571 218.551 188.048 218.262C187.526 217.963 187.115 217.548 186.816 217.016C186.527 216.475 186.382 215.849 186.382 215.14V214.972C186.382 214.253 186.527 213.628 186.816 213.096C187.106 212.555 187.507 212.139 188.02 211.85C188.543 211.551 189.145 211.402 189.826 211.402C190.489 211.402 191.068 211.551 191.562 211.85C192.066 212.139 192.458 212.545 192.738 213.068C193.018 213.591 193.158 214.202 193.158 214.902V215.448H187.852C187.871 216.055 188.072 216.54 188.454 216.904C188.846 217.259 189.332 217.436 189.91 217.436C190.452 217.436 190.858 217.315 191.128 217.072C191.408 216.829 191.623 216.549 191.772 216.232L192.962 216.848C192.832 217.109 192.64 217.385 192.388 217.674C192.146 217.963 191.824 218.206 191.422 218.402C191.021 218.598 190.508 218.696 189.882 218.696ZM187.866 214.342H191.688C191.651 213.819 191.464 213.413 191.128 213.124C190.792 212.825 190.354 212.676 189.812 212.676C189.271 212.676 188.828 212.825 188.482 213.124C188.146 213.413 187.941 213.819 187.866 214.342ZM195.762 218.696C195.435 218.696 195.16 218.589 194.936 218.374C194.721 218.159 194.614 217.884 194.614 217.548C194.614 217.212 194.721 216.941 194.936 216.736C195.16 216.521 195.435 216.414 195.762 216.414C196.089 216.414 196.359 216.521 196.574 216.736C196.798 216.951 196.91 217.221 196.91 217.548C196.91 217.884 196.798 218.159 196.574 218.374C196.359 218.589 196.089 218.696 195.762 218.696ZM195.762 213.698C195.435 213.698 195.16 213.591 194.936 213.376C194.721 213.161 194.614 212.886 194.614 212.55C194.614 212.214 194.721 211.943 194.936 211.738C195.16 211.523 195.435 211.416 195.762 211.416C196.089 211.416 196.359 211.523 196.574 211.738C196.798 211.953 196.91 212.223 196.91 212.55C196.91 212.886 196.798 213.161 196.574 213.376C196.359 213.591 196.089 213.698 195.762 213.698Z" fill="white" fill-opacity="0.7"/>
<path d="M219.196 226.504C217.3 226.504 215.62 226.168 214.156 225.496C212.692 224.824 211.54 223.84 210.7 222.544C209.884 221.224 209.476 219.628 209.476 217.756V216.856H213.328V217.756C213.328 219.532 213.856 220.864 214.912 221.752C215.992 222.64 217.42 223.084 219.196 223.084C220.996 223.084 222.352 222.712 223.264 221.968C224.176 221.2 224.632 220.216 224.632 219.016C224.632 218.224 224.416 217.576 223.984 217.072C223.576 216.568 222.976 216.172 222.184 215.884C221.392 215.572 220.444 215.284 219.34 215.02L218.008 214.696C216.4 214.312 215.008 213.844 213.832 213.292C212.656 212.716 211.744 211.96 211.096 211.024C210.448 210.088 210.124 208.888 210.124 207.424C210.124 205.936 210.484 204.664 211.204 203.608C211.924 202.552 212.932 201.736 214.228 201.16C215.524 200.584 217.048 200.296 218.8 200.296C220.552 200.296 222.112 200.596 223.48 201.196C224.872 201.796 225.964 202.684 226.756 203.86C227.572 205.036 227.98 206.512 227.98 208.288V209.584H224.128V208.288C224.128 207.208 223.9 206.332 223.444 205.66C223.012 204.988 222.388 204.496 221.572 204.184C220.78 203.872 219.856 203.716 218.8 203.716C217.264 203.716 216.076 204.04 215.236 204.688C214.396 205.312 213.976 206.188 213.976 207.316C213.976 208.084 214.156 208.72 214.516 209.224C214.9 209.704 215.452 210.1 216.172 210.412C216.892 210.724 217.78 211 218.836 211.24L220.168 211.564C221.8 211.924 223.24 212.392 224.488 212.968C225.736 213.52 226.708 214.276 227.404 215.236C228.124 216.196 228.484 217.432 228.484 218.944C228.484 220.456 228.1 221.776 227.332 222.904C226.588 224.032 225.52 224.92 224.128 225.568C222.736 226.192 221.092 226.504 219.196 226.504ZM217.396 230.176V196.624H220.96V230.176H217.396ZM241.53 226.504C238.602 226.504 236.262 225.676 234.51 224.02C232.782 222.34 231.918 219.82 231.918 216.46V210.34C231.918 207.052 232.782 204.556 234.51 202.852C236.262 201.148 238.602 200.296 241.53 200.296C244.482 200.296 246.822 201.148 248.55 202.852C250.302 204.556 251.178 207.052 251.178 210.34V216.46C251.178 219.82 250.302 222.34 248.55 224.02C246.822 225.676 244.482 226.504 241.53 226.504ZM241.53 223.12C243.522 223.12 244.998 222.556 245.958 221.428C246.918 220.276 247.398 218.668 247.398 216.604V210.124C247.398 208.06 246.882 206.476 245.85 205.372C244.818 204.244 243.378 203.68 241.53 203.68C239.658 203.68 238.218 204.256 237.21 205.408C236.202 206.536 235.698 208.108 235.698 210.124V216.604C235.698 218.716 236.178 220.336 237.138 221.464C238.122 222.568 239.586 223.12 241.53 223.12ZM257.616 226.504C256.776 226.504 256.068 226.228 255.492 225.676C254.94 225.124 254.664 224.416 254.664 223.552C254.664 222.688 254.94 221.992 255.492 221.464C256.068 220.912 256.776 220.636 257.616 220.636C258.456 220.636 259.152 220.912 259.704 221.464C260.28 222.016 260.568 222.712 260.568 223.552C260.568 224.416 260.28 225.124 259.704 225.676C259.152 226.228 258.456 226.504 257.616 226.504ZM273.697 226.504C270.769 226.504 268.429 225.676 266.677 224.02C264.949 222.34 264.085 219.82 264.085 216.46V210.34C264.085 207.052 264.949 204.556 266.677 202.852C268.429 201.148 270.769 200.296 273.697 200.296C276.649 200.296 278.989 201.148 280.717 202.852C282.469 204.556 283.345 207.052 283.345 210.34V216.46C283.345 219.82 282.469 222.34 280.717 224.02C278.989 225.676 276.649 226.504 273.697 226.504ZM273.697 223.12C275.689 223.12 277.165 222.556 278.125 221.428C279.085 220.276 279.565 218.668 279.565 216.604V210.124C279.565 208.06 279.049 206.476 278.017 205.372C276.985 204.244 275.545 203.68 273.697 203.68C271.825 203.68 270.385 204.256 269.377 205.408C268.369 206.536 267.865 208.108 267.865 210.124V216.604C267.865 218.716 268.345 220.336 269.305 221.464C270.289 222.568 271.753 223.12 273.697 223.12ZM289.717 226V225.1C289.717 224.188 289.789 223.432 289.933 222.832C290.077 222.208 290.377 221.488 290.833 220.672L299.833 204.652V204.184H285.685V200.8H303.757V205.264L294.289 222.256C294.001 222.784 293.797 223.264 293.677 223.696C293.557 224.104 293.497 224.62 293.497 225.244V226H289.717ZM315.622 226.504C313.726 226.504 312.082 226.156 310.69 225.46C309.298 224.764 308.218 223.78 307.45 222.508C306.706 221.236 306.334 219.76 306.334 218.08V217.684H310.186V218.044C310.186 219.58 310.654 220.816 311.59 221.752C312.55 222.664 313.882 223.12 315.586 223.12C317.338 223.12 318.694 222.64 319.654 221.68C320.614 220.72 321.094 219.424 321.094 217.792V217.468C321.094 215.908 320.614 214.66 319.654 213.724C318.718 212.788 317.518 212.32 316.054 212.32C315.238 212.32 314.554 212.452 314.002 212.716C313.474 212.956 313.042 213.256 312.706 213.616C312.394 213.976 312.13 214.324 311.914 214.66H307.126V200.8H324.01V204.22H310.906V211.636H311.482C311.722 211.228 312.058 210.844 312.49 210.484C312.946 210.1 313.534 209.788 314.254 209.548C314.974 209.308 315.838 209.188 316.846 209.188C318.334 209.188 319.678 209.512 320.878 210.16C322.102 210.784 323.074 211.72 323.794 212.968C324.514 214.192 324.874 215.68 324.874 217.432V217.828C324.874 219.58 324.502 221.104 323.758 222.4C323.014 223.696 321.946 224.704 320.554 225.424C319.186 226.144 317.542 226.504 315.622 226.504Z" fill="white"/>
<path d="M338.974 218.5V218.15C338.974 217.795 339.002 217.501 339.058 217.268C339.114 217.025 339.231 216.745 339.408 216.428L342.908 210.198V210.016H337.406V208.7H344.434V210.436L340.752 217.044C340.64 217.249 340.561 217.436 340.514 217.604C340.467 217.763 340.444 217.963 340.444 218.206V218.5H338.974ZM349.246 218.696C348.108 218.696 347.198 218.374 346.516 217.73C345.844 217.077 345.508 216.097 345.508 214.79V212.41C345.508 211.131 345.844 210.161 346.516 209.498C347.198 208.835 348.108 208.504 349.246 208.504C350.394 208.504 351.304 208.835 351.976 209.498C352.658 210.161 352.998 211.131 352.998 212.41V214.79C352.998 216.097 352.658 217.077 351.976 217.73C351.304 218.374 350.394 218.696 349.246 218.696ZM349.246 217.38C350.021 217.38 350.595 217.161 350.968 216.722C351.342 216.274 351.528 215.649 351.528 214.846V212.326C351.528 211.523 351.328 210.907 350.926 210.478C350.525 210.039 349.965 209.82 349.246 209.82C348.518 209.82 347.958 210.044 347.566 210.492C347.174 210.931 346.978 211.542 346.978 212.326V214.846C346.978 215.667 347.165 216.297 347.538 216.736C347.921 217.165 348.49 217.38 349.246 217.38ZM355.736 218.682L354.84 217.954L362.498 208.518L363.394 209.246L355.736 218.682ZM361.798 218.654C361.107 218.654 360.561 218.463 360.16 218.08C359.758 217.688 359.558 217.161 359.558 216.498V216.414C359.558 215.742 359.758 215.215 360.16 214.832C360.561 214.44 361.107 214.244 361.798 214.244C362.479 214.244 363.025 214.44 363.436 214.832C363.846 215.215 364.052 215.742 364.052 216.414V216.498C364.052 217.161 363.846 217.688 363.436 218.08C363.034 218.463 362.488 218.654 361.798 218.654ZM361.798 217.674C362.134 217.674 362.395 217.571 362.582 217.366C362.778 217.161 362.876 216.89 362.876 216.554V216.358C362.876 216.013 362.778 215.737 362.582 215.532C362.395 215.327 362.134 215.224 361.798 215.224C361.471 215.224 361.21 215.327 361.014 215.532C360.827 215.737 360.734 216.013 360.734 216.358V216.554C360.734 216.89 360.827 217.161 361.014 217.366C361.21 217.571 361.471 217.674 361.798 217.674ZM356.436 212.956C355.745 212.956 355.194 212.765 354.784 212.382C354.382 211.99 354.182 211.463 354.182 210.8V210.702C354.182 210.03 354.382 209.503 354.784 209.12C355.194 208.737 355.745 208.546 356.436 208.546C357.117 208.546 357.658 208.737 358.06 209.12C358.47 209.503 358.676 210.03 358.676 210.702V210.8C358.676 211.463 358.475 211.99 358.074 212.382C357.672 212.765 357.126 212.956 356.436 212.956ZM356.436 211.976C356.762 211.976 357.019 211.873 357.206 211.668C357.402 211.453 357.5 211.178 357.5 210.842V210.646C357.5 210.31 357.402 210.039 357.206 209.834C357.019 209.629 356.762 209.526 356.436 209.526C356.1 209.526 355.834 209.629 355.638 209.834C355.451 210.039 355.358 210.31 355.358 210.646V210.842C355.358 211.178 355.451 211.453 355.638 211.668C355.834 211.873 356.1 211.976 356.436 211.976ZM371.955 218.696C371.386 218.696 370.858 218.556 370.373 218.276C369.888 217.996 369.496 217.595 369.197 217.072C368.908 216.54 368.763 215.901 368.763 215.154V214.944C368.763 214.207 368.908 213.572 369.197 213.04C369.486 212.508 369.874 212.102 370.359 211.822C370.844 211.542 371.376 211.402 371.955 211.402C372.403 211.402 372.776 211.458 373.075 211.57C373.383 211.682 373.635 211.827 373.831 212.004C374.027 212.172 374.176 212.349 374.279 212.536H374.503V208.7H375.945V218.5H374.531V217.52H374.307C374.13 217.819 373.859 218.089 373.495 218.332C373.14 218.575 372.627 218.696 371.955 218.696ZM372.361 217.436C372.986 217.436 373.5 217.235 373.901 216.834C374.312 216.433 374.517 215.859 374.517 215.112V214.986C374.517 214.249 374.316 213.679 373.915 213.278C373.514 212.877 372.996 212.676 372.361 212.676C371.745 212.676 371.232 212.877 370.821 213.278C370.42 213.679 370.219 214.249 370.219 214.986V215.112C370.219 215.859 370.42 216.433 370.821 216.834C371.232 217.235 371.745 217.436 372.361 217.436ZM378.068 218.5V211.598H379.51V218.5H378.068ZM378.796 210.66C378.516 210.66 378.278 210.571 378.082 210.394C377.895 210.207 377.802 209.969 377.802 209.68C377.802 209.391 377.895 209.157 378.082 208.98C378.278 208.793 378.516 208.7 378.796 208.7C379.085 208.7 379.323 208.793 379.51 208.98C379.697 209.157 379.79 209.391 379.79 209.68C379.79 209.969 379.697 210.207 379.51 210.394C379.323 210.571 379.085 210.66 378.796 210.66ZM384.478 218.696C383.601 218.696 382.873 218.5 382.294 218.108C381.715 217.716 381.361 217.123 381.23 216.33L382.574 216.008C382.649 216.391 382.775 216.694 382.952 216.918C383.129 217.142 383.349 217.301 383.61 217.394C383.881 217.487 384.17 217.534 384.478 217.534C384.935 217.534 385.285 217.445 385.528 217.268C385.78 217.091 385.906 216.862 385.906 216.582C385.906 216.302 385.789 216.097 385.556 215.966C385.323 215.835 384.977 215.728 384.52 215.644L384.044 215.56C383.577 215.476 383.153 215.355 382.77 215.196C382.387 215.037 382.084 214.818 381.86 214.538C381.636 214.258 381.524 213.899 381.524 213.46C381.524 212.807 381.767 212.303 382.252 211.948C382.737 211.584 383.381 211.402 384.184 211.402C384.959 211.402 385.593 211.579 386.088 211.934C386.592 212.279 386.919 212.751 387.068 213.348L385.724 213.726C385.64 213.306 385.463 213.012 385.192 212.844C384.921 212.667 384.585 212.578 384.184 212.578C383.792 212.578 383.484 212.653 383.26 212.802C383.036 212.942 382.924 213.143 382.924 213.404C382.924 213.684 383.031 213.889 383.246 214.02C383.47 214.151 383.769 214.249 384.142 214.314L384.632 214.398C385.127 214.482 385.579 214.599 385.99 214.748C386.401 214.897 386.723 215.112 386.956 215.392C387.199 215.672 387.32 216.045 387.32 216.512C387.32 217.203 387.063 217.739 386.55 218.122C386.037 218.505 385.346 218.696 384.478 218.696ZM392.211 218.696C391.549 218.696 390.947 218.556 390.405 218.276C389.873 217.996 389.449 217.59 389.131 217.058C388.823 216.526 388.669 215.887 388.669 215.14V214.958C388.669 214.211 388.823 213.577 389.131 213.054C389.449 212.522 389.873 212.116 390.405 211.836C390.947 211.547 391.549 211.402 392.211 211.402C392.874 211.402 393.439 211.523 393.905 211.766C394.372 212.009 394.745 212.331 395.025 212.732C395.315 213.133 395.501 213.577 395.585 214.062L394.185 214.356C394.139 214.048 394.041 213.768 393.891 213.516C393.742 213.264 393.532 213.063 393.261 212.914C392.991 212.765 392.65 212.69 392.239 212.69C391.838 212.69 391.474 212.783 391.147 212.97C390.83 213.147 390.578 213.409 390.391 213.754C390.205 214.09 390.111 214.501 390.111 214.986V215.112C390.111 215.597 390.205 216.013 390.391 216.358C390.578 216.703 390.83 216.965 391.147 217.142C391.474 217.319 391.838 217.408 392.239 217.408C392.846 217.408 393.308 217.254 393.625 216.946C393.943 216.629 394.143 216.227 394.227 215.742L395.627 216.064C395.515 216.54 395.315 216.979 395.025 217.38C394.745 217.781 394.372 218.103 393.905 218.346C393.439 218.579 392.874 218.696 392.211 218.696ZM400.525 218.696C399.834 218.696 399.218 218.556 398.677 218.276C398.145 217.987 397.725 217.576 397.417 217.044C397.109 216.512 396.955 215.882 396.955 215.154V214.944C396.955 214.216 397.109 213.591 397.417 213.068C397.725 212.536 398.145 212.125 398.677 211.836C399.218 211.547 399.834 211.402 400.525 211.402C401.215 211.402 401.831 211.547 402.373 211.836C402.914 212.125 403.339 212.536 403.647 213.068C403.955 213.591 404.109 214.216 404.109 214.944V215.154C404.109 215.882 403.955 216.512 403.647 217.044C403.339 217.576 402.914 217.987 402.373 218.276C401.831 218.556 401.215 218.696 400.525 218.696ZM400.525 217.408C401.159 217.408 401.673 217.207 402.065 216.806C402.466 216.395 402.667 215.831 402.667 215.112V214.986C402.667 214.267 402.471 213.707 402.079 213.306C401.687 212.895 401.169 212.69 400.525 212.69C399.899 212.69 399.386 212.895 398.985 213.306C398.593 213.707 398.397 214.267 398.397 214.986V215.112C398.397 215.831 398.593 216.395 398.985 216.806C399.386 217.207 399.899 217.408 400.525 217.408ZM408.55 218.626C408.027 218.626 407.561 218.509 407.15 218.276C406.739 218.043 406.417 217.711 406.184 217.282C405.951 216.853 405.834 216.339 405.834 215.742V211.598H407.276V215.644C407.276 216.241 407.425 216.685 407.724 216.974C408.023 217.254 408.438 217.394 408.97 217.394C409.558 217.394 410.029 217.198 410.384 216.806C410.748 216.405 410.93 215.831 410.93 215.084V211.598H412.372V218.5H410.958V217.464H410.734C410.603 217.744 410.37 218.01 410.034 218.262C409.698 218.505 409.203 218.626 408.55 218.626ZM414.503 218.5V211.598H415.917V212.634H416.141C416.272 212.354 416.505 212.093 416.841 211.85C417.177 211.607 417.677 211.486 418.339 211.486C418.862 211.486 419.324 211.603 419.725 211.836C420.136 212.069 420.458 212.401 420.691 212.83C420.925 213.25 421.041 213.759 421.041 214.356V218.5H419.599V214.468C419.599 213.871 419.45 213.432 419.151 213.152C418.853 212.863 418.442 212.718 417.919 212.718C417.322 212.718 416.841 212.914 416.477 213.306C416.123 213.698 415.945 214.267 415.945 215.014V218.5H414.503ZM425.515 218.5C425.095 218.5 424.759 218.374 424.507 218.122C424.265 217.87 424.143 217.534 424.143 217.114V212.816H422.239V211.598H424.143V209.316H425.585V211.598H427.643V212.816H425.585V216.862C425.585 217.142 425.716 217.282 425.977 217.282H427.419V218.5H425.515Z" fill="#D0D5DD"/>
<g filter="url(#filter1_d_1_395)">
<path d="M128 309C128 304.582 131.582 301 136 301H553V319H136C131.582 319 128 315.418 128 311V309Z" fill="#902494"/>
</g>
<path d="M128 309C128 304.582 131.582 301 136 301H389V319H136C131.582 319 128 315.418 128 311V309Z" fill="url(#paint3_linear_1_395)"/>
<rect opacity="0.5" x="132.242" y="301" width="257" height="56" fill="url(#paint4_linear_1_395)"/>
<path d="M269.586 281.196C268.849 281.196 268.195 281.065 267.626 280.804C267.057 280.543 266.609 280.16 266.282 279.656C265.965 279.143 265.806 278.522 265.806 277.794V277.444H267.304V277.794C267.304 278.485 267.509 279.003 267.92 279.348C268.34 279.693 268.895 279.866 269.586 279.866C270.286 279.866 270.813 279.721 271.168 279.432C271.523 279.133 271.7 278.751 271.7 278.284C271.7 277.976 271.616 277.724 271.448 277.528C271.289 277.332 271.056 277.178 270.748 277.066C270.44 276.945 270.071 276.833 269.642 276.73L269.124 276.604C268.499 276.455 267.957 276.273 267.5 276.058C267.043 275.834 266.688 275.54 266.436 275.176C266.184 274.812 266.058 274.345 266.058 273.776C266.058 273.197 266.198 272.703 266.478 272.292C266.758 271.881 267.15 271.564 267.654 271.34C268.158 271.116 268.751 271.004 269.432 271.004C270.113 271.004 270.72 271.121 271.252 271.354C271.793 271.587 272.218 271.933 272.526 272.39C272.843 272.847 273.002 273.421 273.002 274.112V274.616H271.504V274.112C271.504 273.692 271.415 273.351 271.238 273.09C271.07 272.829 270.827 272.637 270.51 272.516C270.202 272.395 269.843 272.334 269.432 272.334C268.835 272.334 268.373 272.46 268.046 272.712C267.719 272.955 267.556 273.295 267.556 273.734C267.556 274.033 267.626 274.28 267.766 274.476C267.915 274.663 268.13 274.817 268.41 274.938C268.69 275.059 269.035 275.167 269.446 275.26L269.964 275.386C270.599 275.526 271.159 275.708 271.644 275.932C272.129 276.147 272.507 276.441 272.778 276.814C273.058 277.187 273.198 277.668 273.198 278.256C273.198 278.844 273.049 279.357 272.75 279.796C272.461 280.235 272.045 280.58 271.504 280.832C270.963 281.075 270.323 281.196 269.586 281.196ZM268.886 282.624V269.576H270.272V282.624H268.886ZM278.271 281.196C277.133 281.196 276.223 280.874 275.541 280.23C274.869 279.577 274.533 278.597 274.533 277.29V274.91C274.533 273.631 274.869 272.661 275.541 271.998C276.223 271.335 277.133 271.004 278.271 271.004C279.419 271.004 280.329 271.335 281.001 271.998C281.683 272.661 282.023 273.631 282.023 274.91V277.29C282.023 278.597 281.683 279.577 281.001 280.23C280.329 280.874 279.419 281.196 278.271 281.196ZM278.271 279.88C279.046 279.88 279.62 279.661 279.993 279.222C280.367 278.774 280.553 278.149 280.553 277.346V274.826C280.553 274.023 280.353 273.407 279.951 272.978C279.55 272.539 278.99 272.32 278.271 272.32C277.543 272.32 276.983 272.544 276.591 272.992C276.199 273.431 276.003 274.042 276.003 274.826V277.346C276.003 278.167 276.19 278.797 276.563 279.236C276.946 279.665 277.515 279.88 278.271 279.88ZM284.527 281.196C284.201 281.196 283.925 281.089 283.701 280.874C283.487 280.659 283.379 280.384 283.379 280.048C283.379 279.712 283.487 279.441 283.701 279.236C283.925 279.021 284.201 278.914 284.527 278.914C284.854 278.914 285.125 279.021 285.339 279.236C285.563 279.451 285.675 279.721 285.675 280.048C285.675 280.384 285.563 280.659 285.339 280.874C285.125 281.089 284.854 281.196 284.527 281.196ZM290.781 281.196C289.642 281.196 288.732 280.874 288.051 280.23C287.379 279.577 287.043 278.597 287.043 277.29V274.91C287.043 273.631 287.379 272.661 288.051 271.998C288.732 271.335 289.642 271.004 290.781 271.004C291.929 271.004 292.839 271.335 293.511 271.998C294.192 272.661 294.533 273.631 294.533 274.91V277.29C294.533 278.597 294.192 279.577 293.511 280.23C292.839 280.874 291.929 281.196 290.781 281.196ZM290.781 279.88C291.556 279.88 292.13 279.661 292.503 279.222C292.876 278.774 293.063 278.149 293.063 277.346V274.826C293.063 274.023 292.862 273.407 292.461 272.978C292.06 272.539 291.5 272.32 290.781 272.32C290.053 272.32 289.493 272.544 289.101 272.992C288.709 273.431 288.513 274.042 288.513 274.826V277.346C288.513 278.167 288.7 278.797 289.073 279.236C289.456 279.665 290.025 279.88 290.781 279.88ZM297.011 281V280.65C297.011 280.295 297.039 280.001 297.095 279.768C297.151 279.525 297.267 279.245 297.445 278.928L300.945 272.698V272.516H295.443V271.2H302.471V272.936L298.789 279.544C298.677 279.749 298.597 279.936 298.551 280.104C298.504 280.263 298.481 280.463 298.481 280.706V281H297.011ZM307.085 281.196C306.348 281.196 305.708 281.061 305.167 280.79C304.626 280.519 304.206 280.137 303.907 279.642C303.618 279.147 303.473 278.573 303.473 277.92V277.766H304.971V277.906C304.971 278.503 305.153 278.984 305.517 279.348C305.89 279.703 306.408 279.88 307.071 279.88C307.752 279.88 308.28 279.693 308.653 279.32C309.026 278.947 309.213 278.443 309.213 277.808V277.682C309.213 277.075 309.026 276.59 308.653 276.226C308.289 275.862 307.822 275.68 307.253 275.68C306.936 275.68 306.67 275.731 306.455 275.834C306.25 275.927 306.082 276.044 305.951 276.184C305.83 276.324 305.727 276.459 305.643 276.59H303.781V271.2H310.347V272.53H305.251V275.414H305.475C305.568 275.255 305.699 275.106 305.867 274.966C306.044 274.817 306.273 274.695 306.553 274.602C306.833 274.509 307.169 274.462 307.561 274.462C308.14 274.462 308.662 274.588 309.129 274.84C309.605 275.083 309.983 275.447 310.263 275.932C310.543 276.408 310.683 276.987 310.683 277.668V277.822C310.683 278.503 310.538 279.096 310.249 279.6C309.96 280.104 309.544 280.496 309.003 280.776C308.471 281.056 307.832 281.196 307.085 281.196Z" fill="white"/>
<rect x="271.735" y="294" width="32" height="32" rx="16" fill="#FFA969"/>
<rect x="271.735" y="294" width="32" height="32" rx="16" stroke="#C92BB9" stroke-width="2"/>
<path d="M287.824 315.196C287.115 315.196 286.48 315.07 285.92 314.818C285.36 314.566 284.917 314.188 284.59 313.684C284.273 313.171 284.114 312.531 284.114 311.766V311.472H285.276V311.766C285.276 312.578 285.514 313.185 285.99 313.586C286.466 313.978 287.077 314.174 287.824 314.174C288.589 314.174 289.173 314.001 289.574 313.656C289.975 313.311 290.176 312.877 290.176 312.354C290.176 311.99 290.087 311.701 289.91 311.486C289.733 311.271 289.481 311.099 289.154 310.968C288.827 310.828 288.445 310.707 288.006 310.604L287.264 310.422C286.695 310.273 286.191 310.091 285.752 309.876C285.313 309.661 284.968 309.381 284.716 309.036C284.473 308.681 284.352 308.229 284.352 307.678C284.352 307.127 284.492 306.651 284.772 306.25C285.052 305.849 285.439 305.541 285.934 305.326C286.429 305.111 287.007 305.004 287.67 305.004C288.333 305.004 288.925 305.121 289.448 305.354C289.971 305.578 290.386 305.914 290.694 306.362C291.002 306.801 291.156 307.356 291.156 308.028V308.616H289.994V308.028C289.994 307.552 289.891 307.169 289.686 306.88C289.49 306.591 289.215 306.376 288.86 306.236C288.515 306.096 288.118 306.026 287.67 306.026C287.026 306.026 286.508 306.171 286.116 306.46C285.724 306.74 285.528 307.141 285.528 307.664C285.528 308.009 285.607 308.289 285.766 308.504C285.934 308.719 286.172 308.896 286.48 309.036C286.788 309.167 287.157 309.283 287.586 309.386L288.328 309.568C288.888 309.689 289.397 309.857 289.854 310.072C290.311 310.277 290.671 310.562 290.932 310.926C291.203 311.281 291.338 311.747 291.338 312.326C291.338 312.905 291.193 313.409 290.904 313.838C290.615 314.267 290.204 314.603 289.672 314.846C289.149 315.079 288.533 315.196 287.824 315.196ZM287.292 316.624V303.576H288.37V316.624H287.292Z" fill="white"/>
<path d="M434.542 281.196C433.805 281.196 433.152 281.065 432.582 280.804C432.013 280.543 431.565 280.16 431.238 279.656C430.921 279.143 430.762 278.522 430.762 277.794V277.444H432.26V277.794C432.26 278.485 432.466 279.003 432.876 279.348C433.296 279.693 433.852 279.866 434.542 279.866C435.242 279.866 435.77 279.721 436.124 279.432C436.479 279.133 436.656 278.751 436.656 278.284C436.656 277.976 436.572 277.724 436.404 277.528C436.246 277.332 436.012 277.178 435.704 277.066C435.396 276.945 435.028 276.833 434.598 276.73L434.08 276.604C433.455 276.455 432.914 276.273 432.456 276.058C431.999 275.834 431.644 275.54 431.392 275.176C431.14 274.812 431.014 274.345 431.014 273.776C431.014 273.197 431.154 272.703 431.434 272.292C431.714 271.881 432.106 271.564 432.61 271.34C433.114 271.116 433.707 271.004 434.388 271.004C435.07 271.004 435.676 271.121 436.208 271.354C436.75 271.587 437.174 271.933 437.482 272.39C437.8 272.847 437.958 273.421 437.958 274.112V274.616H436.46V274.112C436.46 273.692 436.372 273.351 436.194 273.09C436.026 272.829 435.784 272.637 435.466 272.516C435.158 272.395 434.799 272.334 434.388 272.334C433.791 272.334 433.329 272.46 433.002 272.712C432.676 272.955 432.512 273.295 432.512 273.734C432.512 274.033 432.582 274.28 432.722 274.476C432.872 274.663 433.086 274.817 433.366 274.938C433.646 275.059 433.992 275.167 434.402 275.26L434.92 275.386C435.555 275.526 436.115 275.708 436.6 275.932C437.086 276.147 437.464 276.441 437.734 276.814C438.014 277.187 438.154 277.668 438.154 278.256C438.154 278.844 438.005 279.357 437.706 279.796C437.417 280.235 437.002 280.58 436.46 280.832C435.919 281.075 435.28 281.196 434.542 281.196ZM433.842 282.624V269.576H435.228V282.624H433.842ZM443.228 281.196C442.089 281.196 441.179 280.874 440.498 280.23C439.826 279.577 439.49 278.597 439.49 277.29V274.91C439.49 273.631 439.826 272.661 440.498 271.998C441.179 271.335 442.089 271.004 443.228 271.004C444.376 271.004 445.286 271.335 445.958 271.998C446.639 272.661 446.98 273.631 446.98 274.91V277.29C446.98 278.597 446.639 279.577 445.958 280.23C445.286 280.874 444.376 281.196 443.228 281.196ZM443.228 279.88C444.002 279.88 444.576 279.661 444.95 279.222C445.323 278.774 445.51 278.149 445.51 277.346V274.826C445.51 274.023 445.309 273.407 444.908 272.978C444.506 272.539 443.946 272.32 443.228 272.32C442.5 272.32 441.94 272.544 441.548 272.992C441.156 273.431 440.96 274.042 440.96 274.826V277.346C440.96 278.167 441.146 278.797 441.52 279.236C441.902 279.665 442.472 279.88 443.228 279.88ZM449.484 281.196C449.157 281.196 448.882 281.089 448.658 280.874C448.443 280.659 448.336 280.384 448.336 280.048C448.336 279.712 448.443 279.441 448.658 279.236C448.882 279.021 449.157 278.914 449.484 278.914C449.81 278.914 450.081 279.021 450.296 279.236C450.52 279.451 450.632 279.721 450.632 280.048C450.632 280.384 450.52 280.659 450.296 280.874C450.081 281.089 449.81 281.196 449.484 281.196ZM455.737 281.196C454.599 281.196 453.689 280.874 453.007 280.23C452.335 279.577 451.999 278.597 451.999 277.29V274.91C451.999 273.631 452.335 272.661 453.007 271.998C453.689 271.335 454.599 271.004 455.737 271.004C456.885 271.004 457.795 271.335 458.467 271.998C459.149 272.661 459.489 273.631 459.489 274.91V277.29C459.489 278.597 459.149 279.577 458.467 280.23C457.795 280.874 456.885 281.196 455.737 281.196ZM455.737 279.88C456.512 279.88 457.086 279.661 457.459 279.222C457.833 278.774 458.019 278.149 458.019 277.346V274.826C458.019 274.023 457.819 273.407 457.417 272.978C457.016 272.539 456.456 272.32 455.737 272.32C455.009 272.32 454.449 272.544 454.057 272.992C453.665 273.431 453.469 274.042 453.469 274.826V277.346C453.469 278.167 453.656 278.797 454.029 279.236C454.412 279.665 454.981 279.88 455.737 279.88ZM464.537 281.196C463.781 281.196 463.118 281.084 462.549 280.86C461.989 280.636 461.55 280.314 461.233 279.894C460.925 279.465 460.771 278.965 460.771 278.396V278.242C460.771 277.775 460.86 277.393 461.037 277.094C461.224 276.786 461.448 276.548 461.709 276.38C461.98 276.203 462.232 276.086 462.465 276.03V275.806C462.232 275.741 461.994 275.624 461.751 275.456C461.508 275.279 461.308 275.05 461.149 274.77C461 274.481 460.925 274.135 460.925 273.734V273.58C460.925 273.057 461.074 272.605 461.373 272.222C461.681 271.839 462.106 271.541 462.647 271.326C463.188 271.111 463.818 271.004 464.537 271.004C465.246 271.004 465.872 271.111 466.413 271.326C466.954 271.541 467.374 271.839 467.673 272.222C467.981 272.605 468.135 273.057 468.135 273.58V273.734C468.135 274.135 468.056 274.481 467.897 274.77C467.748 275.05 467.556 275.279 467.323 275.456C467.09 275.624 466.852 275.741 466.609 275.806V276.03C466.852 276.086 467.104 276.203 467.365 276.38C467.626 276.548 467.846 276.786 468.023 277.094C468.2 277.393 468.289 277.775 468.289 278.242V278.396C468.289 278.965 468.13 279.465 467.813 279.894C467.505 280.314 467.066 280.636 466.497 280.86C465.937 281.084 465.284 281.196 464.537 281.196ZM464.537 279.88C465.246 279.88 465.802 279.745 466.203 279.474C466.614 279.194 466.819 278.807 466.819 278.312V278.2C466.819 277.696 466.618 277.309 466.217 277.038C465.825 276.758 465.265 276.618 464.537 276.618C463.809 276.618 463.244 276.758 462.843 277.038C462.442 277.309 462.241 277.696 462.241 278.2V278.312C462.241 278.807 462.442 279.194 462.843 279.474C463.254 279.745 463.818 279.88 464.537 279.88ZM464.537 275.302C465.2 275.302 465.718 275.176 466.091 274.924C466.474 274.672 466.665 274.317 466.665 273.86V273.748C466.665 273.291 466.474 272.941 466.091 272.698C465.708 272.446 465.19 272.32 464.537 272.32C463.874 272.32 463.352 272.446 462.969 272.698C462.586 272.941 462.395 273.291 462.395 273.748V273.86C462.395 274.317 462.582 274.672 462.955 274.924C463.338 275.176 463.865 275.302 464.537 275.302Z" fill="white"/>
<rect x="433.5" y="294" width="32" height="32" rx="16" fill="#902494"/>
<rect x="433.5" y="294" width="32" height="32" rx="16" stroke="#C92BB9" stroke-width="2"/>
<path d="M449.589 315.196C448.88 315.196 448.245 315.07 447.685 314.818C447.125 314.566 446.682 314.188 446.355 313.684C446.038 313.171 445.879 312.531 445.879 311.766V311.472H447.041V311.766C447.041 312.578 447.279 313.185 447.755 313.586C448.231 313.978 448.842 314.174 449.589 314.174C450.354 314.174 450.938 314.001 451.339 313.656C451.74 313.311 451.941 312.877 451.941 312.354C451.941 311.99 451.852 311.701 451.675 311.486C451.498 311.271 451.246 311.099 450.919 310.968C450.592 310.828 450.21 310.707 449.771 310.604L449.029 310.422C448.46 310.273 447.956 310.091 447.517 309.876C447.078 309.661 446.733 309.381 446.481 309.036C446.238 308.681 446.117 308.229 446.117 307.678C446.117 307.127 446.257 306.651 446.537 306.25C446.817 305.849 447.204 305.541 447.699 305.326C448.194 305.111 448.772 305.004 449.435 305.004C450.098 305.004 450.69 305.121 451.213 305.354C451.736 305.578 452.151 305.914 452.459 306.362C452.767 306.801 452.921 307.356 452.921 308.028V308.616H451.759V308.028C451.759 307.552 451.656 307.169 451.451 306.88C451.255 306.591 450.98 306.376 450.625 306.236C450.28 306.096 449.883 306.026 449.435 306.026C448.791 306.026 448.273 306.171 447.881 306.46C447.489 306.74 447.293 307.141 447.293 307.664C447.293 308.009 447.372 308.289 447.531 308.504C447.699 308.719 447.937 308.896 448.245 309.036C448.553 309.167 448.922 309.283 449.351 309.386L450.093 309.568C450.653 309.689 451.162 309.857 451.619 310.072C452.076 310.277 452.436 310.562 452.697 310.926C452.968 311.281 453.103 311.747 453.103 312.326C453.103 312.905 452.958 313.409 452.669 313.838C452.38 314.267 451.969 314.603 451.437 314.846C450.914 315.079 450.298 315.196 449.589 315.196ZM449.057 316.624V303.576H450.135V316.624H449.057Z" fill="white"/>
<path d="M542.697 279.196C541.941 279.196 541.274 279.061 540.695 278.79C540.116 278.519 539.664 278.132 539.337 277.628C539.01 277.124 538.847 276.517 538.847 275.808V275.416H540.667V275.808C540.667 276.396 540.849 276.839 541.213 277.138C541.577 277.427 542.072 277.572 542.697 277.572C543.332 277.572 543.803 277.446 544.111 277.194C544.428 276.942 544.587 276.62 544.587 276.228C544.587 275.957 544.512 275.738 544.363 275.57C544.214 275.402 543.994 275.267 543.705 275.164C543.416 275.052 543.061 274.949 542.641 274.856L542.319 274.786C541.647 274.637 541.068 274.45 540.583 274.226C540.107 273.993 539.738 273.689 539.477 273.316C539.225 272.943 539.099 272.457 539.099 271.86C539.099 271.263 539.239 270.754 539.519 270.334C539.808 269.905 540.21 269.578 540.723 269.354C541.246 269.121 541.857 269.004 542.557 269.004C543.257 269.004 543.878 269.125 544.419 269.368C544.97 269.601 545.399 269.956 545.707 270.432C546.024 270.899 546.183 271.487 546.183 272.196V272.616H544.363V272.196C544.363 271.823 544.288 271.524 544.139 271.3C543.999 271.067 543.794 270.899 543.523 270.796C543.252 270.684 542.93 270.628 542.557 270.628C541.997 270.628 541.582 270.735 541.311 270.95C541.05 271.155 540.919 271.44 540.919 271.804C540.919 272.047 540.98 272.252 541.101 272.42C541.232 272.588 541.423 272.728 541.675 272.84C541.927 272.952 542.249 273.05 542.641 273.134L542.963 273.204C543.663 273.353 544.27 273.545 544.783 273.778C545.296 274.011 545.693 274.319 545.973 274.702C546.262 275.085 546.407 275.575 546.407 276.172C546.407 276.769 546.253 277.297 545.945 277.754C545.646 278.202 545.217 278.557 544.657 278.818C544.106 279.07 543.453 279.196 542.697 279.196ZM541.843 280.624V267.576H543.523V280.624H541.843ZM551.397 279.196C550.24 279.196 549.311 278.879 548.611 278.244C547.911 277.6 547.561 276.629 547.561 275.332V272.868C547.561 271.608 547.911 270.651 548.611 269.998C549.311 269.335 550.24 269.004 551.397 269.004C552.564 269.004 553.493 269.335 554.183 269.998C554.883 270.651 555.233 271.608 555.233 272.868V275.332C555.233 276.629 554.883 277.6 554.183 278.244C553.493 278.879 552.564 279.196 551.397 279.196ZM551.397 277.6C552.097 277.6 552.611 277.409 552.937 277.026C553.273 276.643 553.441 276.097 553.441 275.388V272.784C553.441 272.065 553.255 271.524 552.881 271.16C552.517 270.787 552.023 270.6 551.397 270.6C550.753 270.6 550.249 270.791 549.885 271.174C549.531 271.557 549.353 272.093 549.353 272.784V275.388C549.353 276.125 549.521 276.681 549.857 277.054C550.203 277.418 550.716 277.6 551.397 277.6ZM557.861 279.196C557.488 279.196 557.171 279.075 556.909 278.832C556.657 278.58 556.531 278.258 556.531 277.866C556.531 277.474 556.657 277.157 556.909 276.914C557.171 276.662 557.488 276.536 557.861 276.536C558.244 276.536 558.561 276.662 558.813 276.914C559.065 277.157 559.191 277.474 559.191 277.866C559.191 278.258 559.065 278.58 558.813 278.832C558.561 279.075 558.244 279.196 557.861 279.196ZM562.833 279V270.516H562.581L561.265 273.624H559.389L561.391 269.2H564.625V279H562.833ZM570.087 279.196C568.929 279.196 568.001 278.879 567.301 278.244C566.601 277.6 566.251 276.629 566.251 275.332V272.868C566.251 271.608 566.601 270.651 567.301 269.998C568.001 269.335 568.929 269.004 570.087 269.004C571.253 269.004 572.182 269.335 572.873 269.998C573.573 270.651 573.923 271.608 573.923 272.868V275.332C573.923 276.629 573.573 277.6 572.873 278.244C572.182 278.879 571.253 279.196 570.087 279.196ZM570.087 277.6C570.787 277.6 571.3 277.409 571.627 277.026C571.963 276.643 572.131 276.097 572.131 275.388V272.784C572.131 272.065 571.944 271.524 571.571 271.16C571.207 270.787 570.712 270.6 570.087 270.6C569.443 270.6 568.939 270.791 568.575 271.174C568.22 271.557 568.043 272.093 568.043 272.784V275.388C568.043 276.125 568.211 276.681 568.547 277.054C568.892 277.418 569.405 277.6 570.087 277.6Z" fill="#FFBA50"/>
<rect x="540" y="294" width="32" height="32" rx="16" fill="#902494"/>
<rect x="540" y="294" width="32" height="32" rx="16" stroke="#C92BB9" stroke-width="2"/>
<path d="M556.089 315.196C555.38 315.196 554.745 315.07 554.185 314.818C553.625 314.566 553.182 314.188 552.855 313.684C552.538 313.171 552.379 312.531 552.379 311.766V311.472H553.541V311.766C553.541 312.578 553.779 313.185 554.255 313.586C554.731 313.978 555.342 314.174 556.089 314.174C556.854 314.174 557.438 314.001 557.839 313.656C558.24 313.311 558.441 312.877 558.441 312.354C558.441 311.99 558.352 311.701 558.175 311.486C557.998 311.271 557.746 311.099 557.419 310.968C557.092 310.828 556.71 310.707 556.271 310.604L555.529 310.422C554.96 310.273 554.456 310.091 554.017 309.876C553.578 309.661 553.233 309.381 552.981 309.036C552.738 308.681 552.617 308.229 552.617 307.678C552.617 307.127 552.757 306.651 553.037 306.25C553.317 305.849 553.704 305.541 554.199 305.326C554.694 305.111 555.272 305.004 555.935 305.004C556.598 305.004 557.19 305.121 557.713 305.354C558.236 305.578 558.651 305.914 558.959 306.362C559.267 306.801 559.421 307.356 559.421 308.028V308.616H558.259V308.028C558.259 307.552 558.156 307.169 557.951 306.88C557.755 306.591 557.48 306.376 557.125 306.236C556.78 306.096 556.383 306.026 555.935 306.026C555.291 306.026 554.773 306.171 554.381 306.46C553.989 306.74 553.793 307.141 553.793 307.664C553.793 308.009 553.872 308.289 554.031 308.504C554.199 308.719 554.437 308.896 554.745 309.036C555.053 309.167 555.422 309.283 555.851 309.386L556.593 309.568C557.153 309.689 557.662 309.857 558.119 310.072C558.576 310.277 558.936 310.562 559.197 310.926C559.468 311.281 559.603 311.747 559.603 312.326C559.603 312.905 559.458 313.409 559.169 313.838C558.88 314.267 558.469 314.603 557.937 314.846C557.414 315.079 556.798 315.196 556.089 315.196ZM555.557 316.624V303.576H556.635V316.624H555.557Z" fill="white"/>
<path d="M387 357C387 357.552 387.448 358 388 358C388.552 358 389 357.552 389 357H387ZM387 301V357H389V301H387Z" fill="#FFA969"/>
<rect x="128" y="387" width="333" height="39" rx="8" fill="white" fill-opacity="0.1"/>
<path d="M144.303 413V402.56H140.631V400.4H150.351V402.56H146.679V413H144.303ZM154.602 413.252C153.714 413.252 152.916 413.072 152.208 412.712C151.5 412.352 150.942 411.83 150.534 411.146C150.126 410.462 149.922 409.64 149.922 408.68V408.392C149.922 407.432 150.126 406.61 150.534 405.926C150.942 405.242 151.5 404.72 152.208 404.36C152.916 404 153.714 403.82 154.602 403.82C155.49 403.82 156.288 404 156.996 404.36C157.704 404.72 158.262 405.242 158.67 405.926C159.078 406.61 159.282 407.432 159.282 408.392V408.68C159.282 409.64 159.078 410.462 158.67 411.146C158.262 411.83 157.704 412.352 156.996 412.712C156.288 413.072 155.49 413.252 154.602 413.252ZM154.602 411.236C155.298 411.236 155.874 411.014 156.33 410.57C156.786 410.114 157.014 409.466 157.014 408.626V408.446C157.014 407.606 156.786 406.964 156.33 406.52C155.886 406.064 155.31 405.836 154.602 405.836C153.906 405.836 153.33 406.064 152.874 406.52C152.418 406.964 152.19 407.606 152.19 408.446V408.626C152.19 409.466 152.418 410.114 152.874 410.57C153.33 411.014 153.906 411.236 154.602 411.236ZM164.496 413C163.908 413 163.428 412.82 163.056 412.46C162.696 412.088 162.516 411.596 162.516 410.984V405.944H160.284V404.072H162.516V401.3H164.784V404.072H167.232V405.944H164.784V410.588C164.784 410.948 164.952 411.128 165.288 411.128H167.016V413H164.496ZM172.057 413.252C171.421 413.252 170.851 413.144 170.347 412.928C169.843 412.7 169.441 412.376 169.141 411.956C168.853 411.524 168.709 411.002 168.709 410.39C168.709 409.778 168.853 409.268 169.141 408.86C169.441 408.44 169.849 408.128 170.365 407.924C170.893 407.708 171.493 407.6 172.165 407.6H174.613V407.096C174.613 406.676 174.481 406.334 174.217 406.07C173.953 405.794 173.533 405.656 172.957 405.656C172.393 405.656 171.973 405.788 171.697 406.052C171.421 406.304 171.241 406.634 171.157 407.042L169.069 406.34C169.213 405.884 169.441 405.47 169.753 405.098C170.077 404.714 170.503 404.408 171.031 404.18C171.571 403.94 172.225 403.82 172.993 403.82C174.169 403.82 175.099 404.114 175.783 404.702C176.467 405.29 176.809 406.142 176.809 407.258V410.588C176.809 410.948 176.977 411.128 177.313 411.128H178.033V413H176.521C176.077 413 175.711 412.892 175.423 412.676C175.135 412.46 174.991 412.172 174.991 411.812V411.794H174.649C174.601 411.938 174.493 412.13 174.325 412.37C174.157 412.598 173.893 412.802 173.533 412.982C173.173 413.162 172.681 413.252 172.057 413.252ZM172.453 411.416C173.089 411.416 173.605 411.242 174.001 410.894C174.409 410.534 174.613 410.06 174.613 409.472V409.292H172.327C171.907 409.292 171.577 409.382 171.337 409.562C171.097 409.742 170.977 409.994 170.977 410.318C170.977 410.642 171.103 410.906 171.355 411.11C171.607 411.314 171.973 411.416 172.453 411.416ZM179.692 413V400.4H181.96V413H179.692ZM188.971 413V400.4H194.443C195.235 400.4 195.925 400.538 196.513 400.814C197.101 401.09 197.557 401.48 197.881 401.984C198.205 402.488 198.367 403.082 198.367 403.766V403.982C198.367 404.738 198.187 405.35 197.827 405.818C197.467 406.286 197.023 406.628 196.495 406.844V407.168C196.975 407.192 197.347 407.36 197.611 407.672C197.875 407.972 198.007 408.374 198.007 408.878V413H195.631V409.22C195.631 408.932 195.553 408.698 195.397 408.518C195.253 408.338 195.007 408.248 194.659 408.248H191.347V413H188.971ZM191.347 406.088H194.191C194.755 406.088 195.193 405.938 195.505 405.638C195.829 405.326 195.991 404.918 195.991 404.414V404.234C195.991 403.73 195.835 403.328 195.523 403.028C195.211 402.716 194.767 402.56 194.191 402.56H191.347V406.088ZM203.188 413.252C202.552 413.252 201.982 413.144 201.478 412.928C200.974 412.7 200.572 412.376 200.272 411.956C199.984 411.524 199.84 411.002 199.84 410.39C199.84 409.778 199.984 409.268 200.272 408.86C200.572 408.44 200.98 408.128 201.496 407.924C202.024 407.708 202.624 407.6 203.296 407.6H205.744V407.096C205.744 406.676 205.612 406.334 205.348 406.07C205.084 405.794 204.664 405.656 204.088 405.656C203.524 405.656 203.104 405.788 202.828 406.052C202.552 406.304 202.372 406.634 202.288 407.042L200.2 406.34C200.344 405.884 200.572 405.47 200.884 405.098C201.208 404.714 201.634 404.408 202.162 404.18C202.702 403.94 203.356 403.82 204.124 403.82C205.3 403.82 206.23 404.114 206.914 404.702C207.598 405.29 207.94 406.142 207.94 407.258V410.588C207.94 410.948 208.108 411.128 208.444 411.128H209.164V413H207.652C207.208 413 206.842 412.892 206.554 412.676C206.266 412.46 206.122 412.172 206.122 411.812V411.794H205.78C205.732 411.938 205.624 412.13 205.456 412.37C205.288 412.598 205.024 412.802 204.664 412.982C204.304 413.162 203.812 413.252 203.188 413.252ZM203.584 411.416C204.22 411.416 204.736 411.242 205.132 410.894C205.54 410.534 205.744 410.06 205.744 409.472V409.292H203.458C203.038 409.292 202.708 409.382 202.468 409.562C202.228 409.742 202.108 409.994 202.108 410.318C202.108 410.642 202.234 410.906 202.486 411.11C202.738 411.314 203.104 411.416 203.584 411.416ZM210.823 413V404.072H213.091V413H210.823ZM211.957 403.028C211.549 403.028 211.201 402.896 210.913 402.632C210.637 402.368 210.499 402.02 210.499 401.588C210.499 401.156 210.637 400.808 210.913 400.544C211.201 400.28 211.549 400.148 211.957 400.148C212.377 400.148 212.725 400.28 213.001 400.544C213.277 400.808 213.415 401.156 213.415 401.588C213.415 402.02 213.277 402.368 213.001 402.632C212.725 402.896 212.377 403.028 211.957 403.028ZM219.312 413.252C218.148 413.252 217.194 413 216.45 412.496C215.706 411.992 215.256 411.272 215.1 410.336L217.188 409.796C217.272 410.216 217.41 410.546 217.602 410.786C217.806 411.026 218.052 411.2 218.34 411.308C218.64 411.404 218.964 411.452 219.312 411.452C219.84 411.452 220.23 411.362 220.482 411.182C220.734 410.99 220.86 410.756 220.86 410.48C220.86 410.204 220.74 409.994 220.5 409.85C220.26 409.694 219.876 409.568 219.348 409.472L218.844 409.382C218.22 409.262 217.65 409.1 217.134 408.896C216.618 408.68 216.204 408.386 215.892 408.014C215.58 407.642 215.424 407.162 215.424 406.574C215.424 405.686 215.748 405.008 216.396 404.54C217.044 404.06 217.896 403.82 218.952 403.82C219.948 403.82 220.776 404.042 221.436 404.486C222.096 404.93 222.528 405.512 222.732 406.232L220.626 406.88C220.53 406.424 220.332 406.1 220.032 405.908C219.744 405.716 219.384 405.62 218.952 405.62C218.52 405.62 218.19 405.698 217.962 405.854C217.734 405.998 217.62 406.202 217.62 406.466C217.62 406.754 217.74 406.97 217.98 407.114C218.22 407.246 218.544 407.348 218.952 407.42L219.456 407.51C220.128 407.63 220.734 407.792 221.274 407.996C221.826 408.188 222.258 408.47 222.57 408.842C222.894 409.202 223.056 409.694 223.056 410.318C223.056 411.254 222.714 411.98 222.03 412.496C221.358 413 220.452 413.252 219.312 413.252ZM229.111 413.252C228.223 413.252 227.437 413.066 226.753 412.694C226.081 412.31 225.553 411.776 225.169 411.092C224.797 410.396 224.611 409.58 224.611 408.644V408.428C224.611 407.492 224.797 406.682 225.169 405.998C225.541 405.302 226.063 404.768 226.735 404.396C227.407 404.012 228.187 403.82 229.075 403.82C229.951 403.82 230.713 404.018 231.361 404.414C232.009 404.798 232.513 405.338 232.873 406.034C233.233 406.718 233.413 407.516 233.413 408.428V409.202H226.915C226.939 409.814 227.167 410.312 227.599 410.696C228.031 411.08 228.559 411.272 229.183 411.272C229.819 411.272 230.287 411.134 230.587 410.858C230.887 410.582 231.115 410.276 231.271 409.94L233.125 410.912C232.957 411.224 232.711 411.566 232.387 411.938C232.075 412.298 231.655 412.61 231.127 412.874C230.599 413.126 229.927 413.252 229.111 413.252ZM226.933 407.51H231.109C231.061 406.994 230.851 406.58 230.479 406.268C230.119 405.956 229.645 405.8 229.057 405.8C228.445 405.8 227.959 405.956 227.599 406.268C227.239 406.58 227.017 406.994 226.933 407.51ZM239.032 413.252C238.324 413.252 237.658 413.078 237.034 412.73C236.422 412.37 235.93 411.848 235.558 411.164C235.186 410.48 235 409.652 235 408.68V408.392C235 407.42 235.186 406.592 235.558 405.908C235.93 405.224 236.422 404.708 237.034 404.36C237.646 404 238.312 403.82 239.032 403.82C239.572 403.82 240.022 403.886 240.382 404.018C240.754 404.138 241.054 404.294 241.282 404.486C241.51 404.678 241.684 404.882 241.804 405.098H242.128V400.4H244.396V413H242.164V411.92H241.84C241.636 412.256 241.318 412.562 240.886 412.838C240.466 413.114 239.848 413.252 239.032 413.252ZM239.716 411.272C240.412 411.272 240.994 411.05 241.462 410.606C241.93 410.15 242.164 409.49 242.164 408.626V408.446C242.164 407.582 241.93 406.928 241.462 406.484C241.006 406.028 240.424 405.8 239.716 405.8C239.02 405.8 238.438 406.028 237.97 406.484C237.502 406.928 237.268 407.582 237.268 408.446V408.626C237.268 409.49 237.502 410.15 237.97 410.606C238.438 411.05 239.02 411.272 239.716 411.272ZM248.332 413.252C247.852 413.252 247.444 413.096 247.108 412.784C246.784 412.46 246.622 412.046 246.622 411.542C246.622 411.038 246.784 410.63 247.108 410.318C247.444 409.994 247.852 409.832 248.332 409.832C248.824 409.832 249.232 409.994 249.556 410.318C249.88 410.63 250.042 411.038 250.042 411.542C250.042 412.046 249.88 412.46 249.556 412.784C249.232 413.096 248.824 413.252 248.332 413.252ZM248.332 407.24C247.852 407.24 247.444 407.084 247.108 406.772C246.784 406.448 246.622 406.034 246.622 405.53C246.622 405.026 246.784 404.618 247.108 404.306C247.444 403.982 247.852 403.82 248.332 403.82C248.824 403.82 249.232 403.982 249.556 404.306C249.88 404.618 250.042 405.026 250.042 405.53C250.042 406.034 249.88 406.448 249.556 406.772C249.232 407.084 248.824 407.24 248.332 407.24ZM261.144 413.252C260.172 413.252 259.314 413.078 258.57 412.73C257.826 412.382 257.244 411.884 256.824 411.236C256.404 410.588 256.194 409.808 256.194 408.896V408.392H258.534V408.896C258.534 409.652 258.768 410.222 259.236 410.606C259.704 410.978 260.34 411.164 261.144 411.164C261.96 411.164 262.566 411.002 262.962 410.678C263.37 410.354 263.574 409.94 263.574 409.436C263.574 409.088 263.478 408.806 263.286 408.59C263.094 408.374 262.812 408.2 262.44 408.068C262.068 407.924 261.612 407.792 261.072 407.672L260.658 407.582C259.794 407.39 259.05 407.15 258.426 406.862C257.814 406.562 257.34 406.172 257.004 405.692C256.68 405.212 256.518 404.588 256.518 403.82C256.518 403.052 256.698 402.398 257.058 401.858C257.43 401.306 257.946 400.886 258.606 400.598C259.278 400.298 260.064 400.148 260.964 400.148C261.864 400.148 262.662 400.304 263.358 400.616C264.066 400.916 264.618 401.372 265.014 401.984C265.422 402.584 265.626 403.34 265.626 404.252V404.792H263.286V404.252C263.286 403.772 263.19 403.388 262.998 403.1C262.818 402.8 262.554 402.584 262.206 402.452C261.858 402.308 261.444 402.236 260.964 402.236C260.244 402.236 259.71 402.374 259.362 402.65C259.026 402.914 258.858 403.28 258.858 403.748C258.858 404.06 258.936 404.324 259.092 404.54C259.26 404.756 259.506 404.936 259.83 405.08C260.154 405.224 260.568 405.35 261.072 405.458L261.486 405.548C262.386 405.74 263.166 405.986 263.826 406.286C264.486 406.586 264.996 406.982 265.356 407.474C265.728 407.966 265.914 408.596 265.914 409.364C265.914 410.132 265.716 410.81 265.32 411.398C264.936 411.974 264.384 412.43 263.664 412.766C262.956 413.09 262.116 413.252 261.144 413.252ZM260.046 415.088V398.312H262.206V415.088H260.046ZM267.254 413V411.488C267.254 410.612 267.398 409.886 267.686 409.31C267.974 408.722 268.388 408.242 268.928 407.87C269.48 407.486 270.152 407.174 270.944 406.934L272.15 406.556C272.594 406.412 272.966 406.238 273.266 406.034C273.566 405.818 273.794 405.56 273.95 405.26C274.118 404.96 274.202 404.618 274.202 404.234V404.162C274.202 403.562 273.998 403.088 273.59 402.74C273.182 402.38 272.624 402.2 271.916 402.2C271.22 402.2 270.656 402.392 270.224 402.776C269.804 403.148 269.594 403.688 269.594 404.396V404.72H267.29V404.432C267.29 403.52 267.494 402.746 267.902 402.11C268.31 401.474 268.862 400.988 269.558 400.652C270.266 400.316 271.052 400.148 271.916 400.148C272.78 400.148 273.56 400.316 274.256 400.652C274.952 400.976 275.498 401.438 275.894 402.038C276.302 402.626 276.506 403.322 276.506 404.126V404.306C276.506 405.11 276.338 405.794 276.002 406.358C275.678 406.91 275.234 407.366 274.67 407.726C274.106 408.074 273.464 408.362 272.744 408.59L271.592 408.95C271.076 409.106 270.674 409.28 270.386 409.472C270.098 409.652 269.894 409.856 269.774 410.084C269.666 410.3 269.612 410.564 269.612 410.876V410.948H276.398V413H267.254ZM283.547 413V410.444H277.355V407.78L281.711 400.4H285.851V408.392H287.939V410.444H285.851V413H283.547ZM279.551 408.392H283.547V401.876H283.223L279.551 408.104V408.392ZM289.086 413V411.488C289.086 410.612 289.23 409.886 289.518 409.31C289.806 408.722 290.22 408.242 290.76 407.87C291.312 407.486 291.984 407.174 292.776 406.934L293.982 406.556C294.426 406.412 294.798 406.238 295.098 406.034C295.398 405.818 295.626 405.56 295.782 405.26C295.95 404.96 296.034 404.618 296.034 404.234V404.162C296.034 403.562 295.83 403.088 295.422 402.74C295.014 402.38 294.456 402.2 293.748 402.2C293.052 402.2 292.488 402.392 292.056 402.776C291.636 403.148 291.426 403.688 291.426 404.396V404.72H289.122V404.432C289.122 403.52 289.326 402.746 289.734 402.11C290.142 401.474 290.694 400.988 291.39 400.652C292.098 400.316 292.884 400.148 293.748 400.148C294.612 400.148 295.392 400.316 296.088 400.652C296.784 400.976 297.33 401.438 297.726 402.038C298.134 402.626 298.338 403.322 298.338 404.126V404.306C298.338 405.11 298.17 405.794 297.834 406.358C297.51 406.91 297.066 407.366 296.502 407.726C295.938 408.074 295.296 408.362 294.576 408.59L293.424 408.95C292.908 409.106 292.506 409.28 292.218 409.472C291.93 409.652 291.726 409.856 291.606 410.084C291.498 410.3 291.444 410.564 291.444 410.876V410.948H298.23V413H289.086ZM300.44 415.646V414.422H301.142C301.694 414.422 301.97 414.146 301.97 413.594V413.018H301.664C301.184 413.018 300.782 412.874 300.458 412.586C300.146 412.298 299.99 411.932 299.99 411.488C299.99 411.008 300.146 410.618 300.458 410.318C300.782 410.018 301.184 409.868 301.664 409.868C302.156 409.868 302.558 410.024 302.87 410.336C303.182 410.636 303.338 411.044 303.338 411.56V413.63C303.338 414.974 302.666 415.646 301.322 415.646H300.44ZM308.021 413V402.092H307.697L306.005 406.088H303.593L306.167 400.4H310.325V413H308.021ZM317.132 413.252C316.172 413.252 315.338 413.072 314.63 412.712C313.922 412.352 313.376 411.854 312.992 411.218C312.608 410.582 312.416 409.85 312.416 409.022V404.72C312.416 403.7 312.62 402.854 313.028 402.182C313.448 401.498 314.018 400.988 314.738 400.652C315.47 400.316 316.304 400.148 317.24 400.148C318.176 400.148 318.986 400.304 319.67 400.616C320.366 400.928 320.9 401.378 321.272 401.966C321.656 402.554 321.848 403.256 321.848 404.072H319.508C319.508 403.568 319.334 403.13 318.986 402.758C318.638 402.386 318.056 402.2 317.24 402.2C316.436 402.2 315.812 402.41 315.368 402.83C314.936 403.25 314.72 403.832 314.72 404.576V405.872H315.044C315.248 405.632 315.56 405.404 315.98 405.188C316.4 404.972 317.012 404.864 317.816 404.864C318.548 404.864 319.22 405.02 319.832 405.332C320.456 405.644 320.96 406.1 321.344 406.7C321.728 407.288 321.92 408.002 321.92 408.842V409.058C321.92 409.886 321.722 410.618 321.326 411.254C320.93 411.878 320.372 412.37 319.652 412.73C318.932 413.078 318.092 413.252 317.132 413.252ZM317.168 411.2C317.924 411.2 318.518 411.002 318.95 410.606C319.394 410.21 319.616 409.682 319.616 409.022V408.878C319.616 408.434 319.514 408.05 319.31 407.726C319.118 407.402 318.836 407.15 318.464 406.97C318.104 406.79 317.672 406.7 317.168 406.7C316.676 406.7 316.244 406.79 315.872 406.97C315.5 407.15 315.212 407.402 315.008 407.726C314.816 408.05 314.72 408.434 314.72 408.878V409.022C314.72 409.682 314.936 410.21 315.368 410.606C315.812 411.002 316.412 411.2 317.168 411.2ZM328.475 413.252C326.987 413.252 325.793 412.844 324.893 412.028C323.993 411.2 323.543 409.952 323.543 408.284V405.116C323.543 403.496 323.993 402.266 324.893 401.426C325.793 400.574 326.987 400.148 328.475 400.148C329.975 400.148 331.169 400.574 332.057 401.426C332.957 402.266 333.407 403.496 333.407 405.116V408.284C333.407 409.952 332.957 411.2 332.057 412.028C331.169 412.844 329.975 413.252 328.475 413.252ZM328.475 411.2C329.375 411.2 330.035 410.954 330.455 410.462C330.887 409.97 331.103 409.268 331.103 408.356V405.008C331.103 404.084 330.863 403.388 330.383 402.92C329.915 402.44 329.279 402.2 328.475 402.2C327.647 402.2 326.999 402.446 326.531 402.938C326.075 403.43 325.847 404.12 325.847 405.008V408.356C325.847 409.304 326.063 410.018 326.495 410.498C326.939 410.966 327.599 411.2 328.475 411.2ZM338.597 416.6L343.889 400.4H346.157L340.865 416.6H338.597ZM355.996 413.252C355.024 413.252 354.166 413.078 353.422 412.73C352.678 412.382 352.096 411.884 351.676 411.236C351.256 410.588 351.046 409.808 351.046 408.896V408.392H353.386V408.896C353.386 409.652 353.62 410.222 354.088 410.606C354.556 410.978 355.192 411.164 355.996 411.164C356.812 411.164 357.418 411.002 357.814 410.678C358.222 410.354 358.426 409.94 358.426 409.436C358.426 409.088 358.33 408.806 358.138 408.59C357.946 408.374 357.664 408.2 357.292 408.068C356.92 407.924 356.464 407.792 355.924 407.672L355.51 407.582C354.646 407.39 353.902 407.15 353.278 406.862C352.666 406.562 352.192 406.172 351.856 405.692C351.532 405.212 351.37 404.588 351.37 403.82C351.37 403.052 351.55 402.398 351.91 401.858C352.282 401.306 352.798 400.886 353.458 400.598C354.13 400.298 354.916 400.148 355.816 400.148C356.716 400.148 357.514 400.304 358.21 400.616C358.918 400.916 359.47 401.372 359.866 401.984C360.274 402.584 360.478 403.34 360.478 404.252V404.792H358.138V404.252C358.138 403.772 358.042 403.388 357.85 403.1C357.67 402.8 357.406 402.584 357.058 402.452C356.71 402.308 356.296 402.236 355.816 402.236C355.096 402.236 354.562 402.374 354.214 402.65C353.878 402.914 353.71 403.28 353.71 403.748C353.71 404.06 353.788 404.324 353.944 404.54C354.112 404.756 354.358 404.936 354.682 405.08C355.006 405.224 355.42 405.35 355.924 405.458L356.338 405.548C357.238 405.74 358.018 405.986 358.678 406.286C359.338 406.586 359.848 406.982 360.208 407.474C360.58 407.966 360.766 408.596 360.766 409.364C360.766 410.132 360.568 410.81 360.172 411.398C359.788 411.974 359.236 412.43 358.516 412.766C357.808 413.09 356.968 413.252 355.996 413.252ZM354.898 415.088V398.312H357.058V415.088H354.898ZM365.994 413V402.092H365.67L363.978 406.088H361.566L364.14 400.4H368.298V413H365.994ZM370.91 415.646V414.422H371.612C372.164 414.422 372.44 414.146 372.44 413.594V413.018H372.134C371.654 413.018 371.252 412.874 370.928 412.586C370.616 412.298 370.46 411.932 370.46 411.488C370.46 411.008 370.616 410.618 370.928 410.318C371.252 410.018 371.654 409.868 372.134 409.868C372.626 409.868 373.028 410.024 373.34 410.336C373.652 410.636 373.808 411.044 373.808 411.56V413.63C373.808 414.974 373.136 415.646 371.792 415.646H370.91ZM380.179 413.252C379.219 413.252 378.367 413.108 377.623 412.82C376.891 412.532 376.315 412.118 375.895 411.578C375.487 411.026 375.283 410.378 375.283 409.634V409.418C375.283 408.842 375.385 408.368 375.589 407.996C375.793 407.612 376.045 407.312 376.345 407.096C376.657 406.88 376.951 406.73 377.227 406.646V406.322C376.951 406.226 376.675 406.07 376.399 405.854C376.123 405.638 375.895 405.35 375.715 404.99C375.547 404.63 375.463 404.198 375.463 403.694V403.478C375.463 402.818 375.655 402.242 376.039 401.75C376.435 401.246 376.987 400.856 377.695 400.58C378.403 400.292 379.231 400.148 380.179 400.148C381.127 400.148 381.955 400.292 382.663 400.58C383.371 400.856 383.917 401.246 384.301 401.75C384.697 402.242 384.895 402.818 384.895 403.478V403.694C384.895 404.198 384.805 404.63 384.625 404.99C384.457 405.35 384.235 405.638 383.959 405.854C383.695 406.07 383.419 406.226 383.131 406.322V406.646C383.419 406.73 383.713 406.88 384.013 407.096C384.313 407.312 384.565 407.612 384.769 407.996C384.973 408.368 385.075 408.842 385.075 409.418V409.634C385.075 410.378 384.865 411.026 384.445 411.578C384.037 412.118 383.461 412.532 382.717 412.82C381.985 413.108 381.139 413.252 380.179 413.252ZM380.179 411.2C381.007 411.2 381.643 411.044 382.087 410.732C382.543 410.408 382.771 409.982 382.771 409.454V409.31C382.771 408.782 382.549 408.362 382.105 408.05C381.673 407.726 381.031 407.564 380.179 407.564C379.339 407.564 378.697 407.726 378.253 408.05C377.809 408.362 377.587 408.782 377.587 409.31V409.454C377.587 409.982 377.809 410.408 378.253 410.732C378.709 411.044 379.351 411.2 380.179 411.2ZM380.179 405.512C380.947 405.512 381.541 405.374 381.961 405.098C382.381 404.822 382.591 404.432 382.591 403.928V403.784C382.591 403.28 382.375 402.89 381.943 402.614C381.511 402.338 380.923 402.2 380.179 402.2C379.435 402.2 378.847 402.338 378.415 402.614C377.983 402.89 377.767 403.28 377.767 403.784V403.928C377.767 404.432 377.977 404.822 378.397 405.098C378.817 405.374 379.411 405.512 380.179 405.512ZM391.404 413.252C389.916 413.252 388.722 412.844 387.822 412.028C386.922 411.2 386.472 409.952 386.472 408.284V405.116C386.472 403.496 386.922 402.266 387.822 401.426C388.722 400.574 389.916 400.148 391.404 400.148C392.904 400.148 394.098 400.574 394.986 401.426C395.886 402.266 396.336 403.496 396.336 405.116V408.284C396.336 409.952 395.886 411.2 394.986 412.028C394.098 412.844 392.904 413.252 391.404 413.252ZM391.404 411.2C392.304 411.2 392.964 410.954 393.384 410.462C393.816 409.97 394.032 409.268 394.032 408.356V405.008C394.032 404.084 393.792 403.388 393.312 402.92C392.844 402.44 392.208 402.2 391.404 402.2C390.576 402.2 389.928 402.446 389.46 402.938C389.004 403.43 388.776 404.12 388.776 405.008V408.356C388.776 409.304 388.992 410.018 389.424 410.498C389.868 410.966 390.528 411.2 391.404 411.2ZM403.076 413.252C401.588 413.252 400.394 412.844 399.494 412.028C398.594 411.2 398.144 409.952 398.144 408.284V405.116C398.144 403.496 398.594 402.266 399.494 401.426C400.394 400.574 401.588 400.148 403.076 400.148C404.576 400.148 405.77 400.574 406.658 401.426C407.558 402.266 408.008 403.496 408.008 405.116V408.284C408.008 409.952 407.558 411.2 406.658 412.028C405.77 412.844 404.576 413.252 403.076 413.252ZM403.076 411.2C403.976 411.2 404.636 410.954 405.056 410.462C405.488 409.97 405.704 409.268 405.704 408.356V405.008C405.704 404.084 405.464 403.388 404.984 402.92C404.516 402.44 403.88 402.2 403.076 402.2C402.248 402.2 401.6 402.446 401.132 402.938C400.676 403.43 400.448 404.12 400.448 405.008V408.356C400.448 409.304 400.664 410.018 401.096 410.498C401.54 410.966 402.2 411.2 403.076 411.2ZM410.127 415.646V414.422H410.829C411.381 414.422 411.657 414.146 411.657 413.594V413.018H411.351C410.871 413.018 410.469 412.874 410.145 412.586C409.833 412.298 409.677 411.932 409.677 411.488C409.677 411.008 409.833 410.618 410.145 410.318C410.469 410.018 410.871 409.868 411.351 409.868C411.843 409.868 412.245 410.024 412.557 410.336C412.869 410.636 413.025 411.044 413.025 411.56V413.63C413.025 414.974 412.353 415.646 411.009 415.646H410.127ZM419.617 413.252C418.129 413.252 416.935 412.844 416.035 412.028C415.135 411.2 414.685 409.952 414.685 408.284V405.116C414.685 403.496 415.135 402.266 416.035 401.426C416.935 400.574 418.129 400.148 419.617 400.148C421.117 400.148 422.311 400.574 423.199 401.426C424.099 402.266 424.549 403.496 424.549 405.116V408.284C424.549 409.952 424.099 411.2 423.199 412.028C422.311 412.844 421.117 413.252 419.617 413.252ZM419.617 411.2C420.517 411.2 421.177 410.954 421.597 410.462C422.029 409.97 422.245 409.268 422.245 408.356V405.008C422.245 404.084 422.005 403.388 421.525 402.92C421.057 402.44 420.421 402.2 419.617 402.2C418.789 402.2 418.141 402.446 417.673 402.938C417.217 403.43 416.989 404.12 416.989 405.008V408.356C416.989 409.304 417.205 410.018 417.637 410.498C418.081 410.966 418.741 411.2 419.617 411.2ZM431.289 413.252C429.801 413.252 428.607 412.844 427.707 412.028C426.807 411.2 426.357 409.952 426.357 408.284V405.116C426.357 403.496 426.807 402.266 427.707 401.426C428.607 400.574 429.801 400.148 431.289 400.148C432.789 400.148 433.983 400.574 434.871 401.426C435.771 402.266 436.221 403.496 436.221 405.116V408.284C436.221 409.952 435.771 411.2 434.871 412.028C433.983 412.844 432.789 413.252 431.289 413.252ZM431.289 411.2C432.189 411.2 432.849 410.954 433.269 410.462C433.701 409.97 433.917 409.268 433.917 408.356V405.008C433.917 404.084 433.677 403.388 433.197 402.92C432.729 402.44 432.093 402.2 431.289 402.2C430.461 402.2 429.813 402.446 429.345 402.938C428.889 403.43 428.661 404.12 428.661 405.008V408.356C428.661 409.304 428.877 410.018 429.309 410.498C429.753 410.966 430.413 411.2 431.289 411.2ZM442.961 413.252C441.473 413.252 440.279 412.844 439.379 412.028C438.479 411.2 438.029 409.952 438.029 408.284V405.116C438.029 403.496 438.479 402.266 439.379 401.426C440.279 400.574 441.473 400.148 442.961 400.148C444.461 400.148 445.655 400.574 446.543 401.426C447.443 402.266 447.893 403.496 447.893 405.116V408.284C447.893 409.952 447.443 411.2 446.543 412.028C445.655 412.844 444.461 413.252 442.961 413.252ZM442.961 411.2C443.861 411.2 444.521 410.954 444.941 410.462C445.373 409.97 445.589 409.268 445.589 408.356V405.008C445.589 404.084 445.349 403.388 444.869 402.92C444.401 402.44 443.765 402.2 442.961 402.2C442.133 402.2 441.485 402.446 441.017 402.938C440.561 403.43 440.333 404.12 440.333 405.008V408.356C440.333 409.304 440.549 410.018 440.981 410.498C441.425 410.966 442.085 411.2 442.961 411.2Z" fill="white"/>
<path d="M139.375 452V442.2H140.887V450.628H145.605V452H139.375ZM147.032 452V445.098H148.474V452H147.032ZM147.76 444.16C147.48 444.16 147.242 444.071 147.046 443.894C146.859 443.707 146.766 443.469 146.766 443.18C146.766 442.891 146.859 442.657 147.046 442.48C147.242 442.293 147.48 442.2 147.76 442.2C148.049 442.2 148.287 442.293 148.474 442.48C148.66 442.657 148.754 442.891 148.754 443.18C148.754 443.469 148.66 443.707 148.474 443.894C148.287 444.071 148.049 444.16 147.76 444.16ZM153.442 452.196C152.564 452.196 151.836 452 151.258 451.608C150.679 451.216 150.324 450.623 150.194 449.83L151.538 449.508C151.612 449.891 151.738 450.194 151.916 450.418C152.093 450.642 152.312 450.801 152.574 450.894C152.844 450.987 153.134 451.034 153.442 451.034C153.899 451.034 154.249 450.945 154.492 450.768C154.744 450.591 154.87 450.362 154.87 450.082C154.87 449.802 154.753 449.597 154.52 449.466C154.286 449.335 153.941 449.228 153.484 449.144L153.008 449.06C152.541 448.976 152.116 448.855 151.734 448.696C151.351 448.537 151.048 448.318 150.824 448.038C150.6 447.758 150.488 447.399 150.488 446.96C150.488 446.307 150.73 445.803 151.216 445.448C151.701 445.084 152.345 444.902 153.148 444.902C153.922 444.902 154.557 445.079 155.052 445.434C155.556 445.779 155.882 446.251 156.032 446.848L154.688 447.226C154.604 446.806 154.426 446.512 154.156 446.344C153.885 446.167 153.549 446.078 153.148 446.078C152.756 446.078 152.448 446.153 152.224 446.302C152 446.442 151.888 446.643 151.888 446.904C151.888 447.184 151.995 447.389 152.21 447.52C152.434 447.651 152.732 447.749 153.106 447.814L153.596 447.898C154.09 447.982 154.543 448.099 154.954 448.248C155.364 448.397 155.686 448.612 155.92 448.892C156.162 449.172 156.284 449.545 156.284 450.012C156.284 450.703 156.027 451.239 155.514 451.622C155 452.005 154.31 452.196 153.442 452.196ZM160.409 452C159.989 452 159.653 451.874 159.401 451.622C159.158 451.37 159.037 451.034 159.037 450.614V446.316H157.133V445.098H159.037V442.816H160.479V445.098H162.537V446.316H160.479V450.362C160.479 450.642 160.61 450.782 160.871 450.782H162.313V452H160.409ZM164.231 452V445.098H165.673V452H164.231ZM164.959 444.16C164.679 444.16 164.441 444.071 164.245 443.894C164.058 443.707 163.965 443.469 163.965 443.18C163.965 442.891 164.058 442.657 164.245 442.48C164.441 442.293 164.679 442.2 164.959 442.2C165.248 442.2 165.486 442.293 165.673 442.48C165.86 442.657 165.953 442.891 165.953 443.18C165.953 443.469 165.86 443.707 165.673 443.894C165.486 444.071 165.248 444.16 164.959 444.16ZM167.813 452V445.098H169.227V446.134H169.451C169.582 445.854 169.815 445.593 170.151 445.35C170.487 445.107 170.986 444.986 171.649 444.986C172.172 444.986 172.634 445.103 173.035 445.336C173.446 445.569 173.768 445.901 174.001 446.33C174.234 446.75 174.351 447.259 174.351 447.856V452H172.909V447.968C172.909 447.371 172.76 446.932 172.461 446.652C172.162 446.363 171.752 446.218 171.229 446.218C170.632 446.218 170.151 446.414 169.787 446.806C169.432 447.198 169.255 447.767 169.255 448.514V452H167.813ZM176.09 448.584V448.374C176.09 447.646 176.235 447.025 176.524 446.512C176.823 445.999 177.215 445.602 177.7 445.322C178.186 445.042 178.718 444.902 179.296 444.902C179.968 444.902 180.482 445.028 180.836 445.28C181.2 445.532 181.466 445.803 181.634 446.092H181.858V445.098H183.258V453.414C183.258 453.834 183.132 454.17 182.88 454.422C182.638 454.674 182.302 454.8 181.872 454.8H177.224V453.54H181.424C181.695 453.54 181.83 453.4 181.83 453.12V450.922H181.606C181.504 451.09 181.359 451.263 181.172 451.44C180.986 451.617 180.738 451.762 180.43 451.874C180.132 451.986 179.754 452.042 179.296 452.042C178.718 452.042 178.181 451.907 177.686 451.636C177.201 451.356 176.814 450.959 176.524 450.446C176.235 449.923 176.09 449.303 176.09 448.584ZM179.688 450.782C180.314 450.782 180.827 450.586 181.228 450.194C181.639 449.793 181.844 449.242 181.844 448.542V448.416C181.844 447.697 181.644 447.147 181.242 446.764C180.841 446.372 180.323 446.176 179.688 446.176C179.072 446.176 178.559 446.372 178.148 446.764C177.747 447.147 177.546 447.697 177.546 448.416V448.542C177.546 449.242 177.747 449.793 178.148 450.194C178.559 450.586 179.072 450.782 179.688 450.782ZM188.908 452V442.2H192.8C193.397 442.2 193.929 442.321 194.396 442.564C194.872 442.797 195.24 443.133 195.502 443.572C195.772 444.001 195.908 444.519 195.908 445.126V445.308C195.908 445.915 195.768 446.437 195.488 446.876C195.217 447.315 194.848 447.651 194.382 447.884C193.915 448.117 193.388 448.234 192.8 448.234H190.42V452H188.908ZM190.42 446.862H192.646C193.178 446.862 193.602 446.722 193.92 446.442C194.237 446.162 194.396 445.779 194.396 445.294V445.154C194.396 444.659 194.237 444.272 193.92 443.992C193.602 443.712 193.178 443.572 192.646 443.572H190.42V446.862ZM197.385 452V445.098H198.799V445.91H199.023C199.135 445.621 199.313 445.411 199.555 445.28C199.807 445.14 200.115 445.07 200.479 445.07H201.305V446.372H200.423C199.957 446.372 199.574 446.503 199.275 446.764C198.977 447.016 198.827 447.408 198.827 447.94V452H197.385ZM202.799 452V445.098H204.241V452H202.799ZM203.527 444.16C203.247 444.16 203.009 444.071 202.813 443.894C202.627 443.707 202.533 443.469 202.533 443.18C202.533 442.891 202.627 442.657 202.813 442.48C203.009 442.293 203.247 442.2 203.527 442.2C203.817 442.2 204.055 442.293 204.241 442.48C204.428 442.657 204.521 442.891 204.521 443.18C204.521 443.469 204.428 443.707 204.241 443.894C204.055 444.071 203.817 444.16 203.527 444.16ZM209.587 452.196C208.925 452.196 208.323 452.056 207.781 451.776C207.249 451.496 206.825 451.09 206.507 450.558C206.199 450.026 206.045 449.387 206.045 448.64V448.458C206.045 447.711 206.199 447.077 206.507 446.554C206.825 446.022 207.249 445.616 207.781 445.336C208.323 445.047 208.925 444.902 209.587 444.902C210.25 444.902 210.815 445.023 211.281 445.266C211.748 445.509 212.121 445.831 212.401 446.232C212.691 446.633 212.877 447.077 212.961 447.562L211.561 447.856C211.515 447.548 211.417 447.268 211.267 447.016C211.118 446.764 210.908 446.563 210.637 446.414C210.367 446.265 210.026 446.19 209.615 446.19C209.214 446.19 208.85 446.283 208.523 446.47C208.206 446.647 207.954 446.909 207.767 447.254C207.581 447.59 207.487 448.001 207.487 448.486V448.612C207.487 449.097 207.581 449.513 207.767 449.858C207.954 450.203 208.206 450.465 208.523 450.642C208.85 450.819 209.214 450.908 209.615 450.908C210.222 450.908 210.684 450.754 211.001 450.446C211.319 450.129 211.519 449.727 211.603 449.242L213.003 449.564C212.891 450.04 212.691 450.479 212.401 450.88C212.121 451.281 211.748 451.603 211.281 451.846C210.815 452.079 210.25 452.196 209.587 452.196ZM217.831 452.196C217.131 452.196 216.519 452.051 215.997 451.762C215.474 451.463 215.063 451.048 214.765 450.516C214.475 449.975 214.331 449.349 214.331 448.64V448.472C214.331 447.753 214.475 447.128 214.765 446.596C215.054 446.055 215.455 445.639 215.969 445.35C216.491 445.051 217.093 444.902 217.775 444.902C218.437 444.902 219.016 445.051 219.511 445.35C220.015 445.639 220.407 446.045 220.687 446.568C220.967 447.091 221.107 447.702 221.107 448.402V448.948H215.801C215.819 449.555 216.02 450.04 216.403 450.404C216.795 450.759 217.28 450.936 217.859 450.936C218.4 450.936 218.806 450.815 219.077 450.572C219.357 450.329 219.571 450.049 219.721 449.732L220.911 450.348C220.78 450.609 220.589 450.885 220.337 451.174C220.094 451.463 219.772 451.706 219.371 451.902C218.969 452.098 218.456 452.196 217.831 452.196ZM215.815 447.842H219.637C219.599 447.319 219.413 446.913 219.077 446.624C218.741 446.325 218.302 446.176 217.761 446.176C217.219 446.176 216.776 446.325 216.431 446.624C216.095 446.913 215.889 447.319 215.815 447.842ZM223.71 452.196C223.384 452.196 223.108 452.089 222.884 451.874C222.67 451.659 222.562 451.384 222.562 451.048C222.562 450.712 222.67 450.441 222.884 450.236C223.108 450.021 223.384 449.914 223.71 449.914C224.037 449.914 224.308 450.021 224.522 450.236C224.746 450.451 224.858 450.721 224.858 451.048C224.858 451.384 224.746 451.659 224.522 451.874C224.308 452.089 224.037 452.196 223.71 452.196ZM223.71 447.198C223.384 447.198 223.108 447.091 222.884 446.876C222.67 446.661 222.562 446.386 222.562 446.05C222.562 445.714 222.67 445.443 222.884 445.238C223.108 445.023 223.384 444.916 223.71 444.916C224.037 444.916 224.308 445.023 224.522 445.238C224.746 445.453 224.858 445.723 224.858 446.05C224.858 446.386 224.746 446.661 224.522 446.876C224.308 447.091 224.037 447.198 223.71 447.198Z" fill="white" fill-opacity="0.7"/>
<path d="M240.48 452.196C239.743 452.196 239.089 452.065 238.52 451.804C237.951 451.543 237.503 451.16 237.176 450.656C236.859 450.143 236.7 449.522 236.7 448.794V448.444H238.198V448.794C238.198 449.485 238.403 450.003 238.814 450.348C239.234 450.693 239.789 450.866 240.48 450.866C241.18 450.866 241.707 450.721 242.062 450.432C242.417 450.133 242.594 449.751 242.594 449.284C242.594 448.976 242.51 448.724 242.342 448.528C242.183 448.332 241.95 448.178 241.642 448.066C241.334 447.945 240.965 447.833 240.536 447.73L240.018 447.604C239.393 447.455 238.851 447.273 238.394 447.058C237.937 446.834 237.582 446.54 237.33 446.176C237.078 445.812 236.952 445.345 236.952 444.776C236.952 444.197 237.092 443.703 237.372 443.292C237.652 442.881 238.044 442.564 238.548 442.34C239.052 442.116 239.645 442.004 240.326 442.004C241.007 442.004 241.614 442.121 242.146 442.354C242.687 442.587 243.112 442.933 243.42 443.39C243.737 443.847 243.896 444.421 243.896 445.112V445.616H242.398V445.112C242.398 444.692 242.309 444.351 242.132 444.09C241.964 443.829 241.721 443.637 241.404 443.516C241.096 443.395 240.737 443.334 240.326 443.334C239.729 443.334 239.267 443.46 238.94 443.712C238.613 443.955 238.45 444.295 238.45 444.734C238.45 445.033 238.52 445.28 238.66 445.476C238.809 445.663 239.024 445.817 239.304 445.938C239.584 446.059 239.929 446.167 240.34 446.26L240.858 446.386C241.493 446.526 242.053 446.708 242.538 446.932C243.023 447.147 243.401 447.441 243.672 447.814C243.952 448.187 244.092 448.668 244.092 449.256C244.092 449.844 243.943 450.357 243.644 450.796C243.355 451.235 242.939 451.58 242.398 451.832C241.857 452.075 241.217 452.196 240.48 452.196ZM239.78 453.624V440.576H241.166V453.624H239.78ZM249.165 452.196C248.027 452.196 247.117 451.874 246.435 451.23C245.763 450.577 245.427 449.597 245.427 448.29V445.91C245.427 444.631 245.763 443.661 246.435 442.998C247.117 442.335 248.027 442.004 249.165 442.004C250.313 442.004 251.223 442.335 251.895 442.998C252.577 443.661 252.917 444.631 252.917 445.91V448.29C252.917 449.597 252.577 450.577 251.895 451.23C251.223 451.874 250.313 452.196 249.165 452.196ZM249.165 450.88C249.94 450.88 250.514 450.661 250.887 450.222C251.261 449.774 251.447 449.149 251.447 448.346V445.826C251.447 445.023 251.247 444.407 250.845 443.978C250.444 443.539 249.884 443.32 249.165 443.32C248.437 443.32 247.877 443.544 247.485 443.992C247.093 444.431 246.897 445.042 246.897 445.826V448.346C246.897 449.167 247.084 449.797 247.457 450.236C247.84 450.665 248.409 450.88 249.165 450.88ZM255.421 452.196C255.095 452.196 254.819 452.089 254.595 451.874C254.381 451.659 254.273 451.384 254.273 451.048C254.273 450.712 254.381 450.441 254.595 450.236C254.819 450.021 255.095 449.914 255.421 449.914C255.748 449.914 256.019 450.021 256.233 450.236C256.457 450.451 256.569 450.721 256.569 451.048C256.569 451.384 256.457 451.659 256.233 451.874C256.019 452.089 255.748 452.196 255.421 452.196ZM260.3 452V443.236H260.076L258.466 446.54H256.912L259.082 442.2H261.77V452H260.3ZM263.458 452V450.894C263.458 450.213 263.575 449.653 263.808 449.214C264.041 448.775 264.373 448.421 264.802 448.15C265.241 447.87 265.768 447.637 266.384 447.45L267.238 447.184C267.621 447.063 267.947 446.913 268.218 446.736C268.498 446.559 268.713 446.339 268.862 446.078C269.011 445.807 269.086 445.495 269.086 445.14V445.084C269.086 444.533 268.899 444.104 268.526 443.796C268.153 443.479 267.663 443.32 267.056 443.32C266.431 443.32 265.922 443.488 265.53 443.824C265.147 444.16 264.956 444.655 264.956 445.308V445.532H263.5V445.322C263.5 444.613 263.654 444.015 263.962 443.53C264.27 443.035 264.695 442.657 265.236 442.396C265.777 442.135 266.384 442.004 267.056 442.004C267.728 442.004 268.325 442.13 268.848 442.382C269.38 442.634 269.795 442.989 270.094 443.446C270.402 443.903 270.556 444.44 270.556 445.056V445.182C270.556 445.817 270.43 446.344 270.178 446.764C269.926 447.184 269.576 447.529 269.128 447.8C268.689 448.071 268.181 448.299 267.602 448.486L266.776 448.738C266.337 448.869 265.983 449.013 265.712 449.172C265.451 449.321 265.255 449.503 265.124 449.718C265.003 449.933 264.942 450.208 264.942 450.544V450.684H270.472V452H263.458ZM279.412 452.196C278.637 452.196 277.97 452.056 277.41 451.776C276.859 451.496 276.43 451.095 276.122 450.572C275.823 450.04 275.674 449.396 275.674 448.64V442.2H277.2V448.682C277.2 449.373 277.391 449.905 277.774 450.278C278.156 450.651 278.702 450.838 279.412 450.838C280.121 450.838 280.667 450.651 281.05 450.278C281.432 449.905 281.624 449.373 281.624 448.682V442.2H283.136V448.64C283.136 449.396 282.986 450.04 282.688 450.572C282.389 451.095 281.96 451.496 281.4 451.776C280.84 452.056 280.177 452.196 279.412 452.196ZM288.441 452.196C287.704 452.196 287.05 452.065 286.481 451.804C285.912 451.543 285.464 451.16 285.137 450.656C284.82 450.143 284.661 449.522 284.661 448.794V448.444H286.159V448.794C286.159 449.485 286.364 450.003 286.775 450.348C287.195 450.693 287.75 450.866 288.441 450.866C289.141 450.866 289.668 450.721 290.023 450.432C290.378 450.133 290.555 449.751 290.555 449.284C290.555 448.976 290.471 448.724 290.303 448.528C290.135 448.332 289.897 448.178 289.589 448.066C289.281 447.945 288.912 447.833 288.483 447.73L287.965 447.604C287.34 447.455 286.794 447.273 286.327 447.058C285.87 446.834 285.515 446.54 285.263 446.176C285.011 445.812 284.885 445.345 284.885 444.776C284.885 444.197 285.025 443.703 285.305 443.292C285.594 442.881 285.991 442.564 286.495 442.34C286.999 442.116 287.592 442.004 288.273 442.004C288.954 442.004 289.561 442.121 290.093 442.354C290.634 442.587 291.059 442.933 291.367 443.39C291.675 443.847 291.829 444.421 291.829 445.112V445.616H290.331V445.112C290.331 444.692 290.242 444.351 290.065 444.09C289.897 443.829 289.659 443.637 289.351 443.516C289.043 443.395 288.684 443.334 288.273 443.334C287.676 443.334 287.209 443.46 286.873 443.712C286.546 443.955 286.383 444.295 286.383 444.734C286.383 445.033 286.453 445.28 286.593 445.476C286.742 445.663 286.957 445.817 287.237 445.938C287.517 446.059 287.867 446.167 288.287 446.26L288.805 446.386C289.44 446.526 290 446.708 290.485 446.932C290.97 447.147 291.353 447.441 291.633 447.814C291.913 448.187 292.053 448.668 292.053 449.256C292.053 449.844 291.904 450.357 291.605 450.796C291.316 451.235 290.9 451.58 290.359 451.832C289.818 452.075 289.178 452.196 288.441 452.196ZM293.221 452V450.656H294.537V443.544H293.221V442.2H297.141C298.448 442.2 299.447 442.531 300.137 443.194C300.837 443.857 301.187 444.855 301.187 446.19V448.024C301.187 449.359 300.837 450.357 300.137 451.02C299.447 451.673 298.448 452 297.141 452H293.221ZM296.063 450.628H297.155C298.005 450.628 298.635 450.413 299.045 449.984C299.456 449.555 299.661 448.915 299.661 448.066V446.134C299.661 445.275 299.456 444.636 299.045 444.216C298.635 443.796 298.005 443.586 297.155 443.586H296.063V450.628Z" fill="white"/>
<defs>
<filter id="filter0_d_1_395" x="0" y="0.953613" width="713" height="611.678" filterUnits="userSpaceOnUse" color-interpolation-filters="sRGB">
<feFlood flood-opacity="0" result="BackgroundImageFix"/>
<feColorMatrix in="SourceAlpha" type="matrix" values="0 0 0 0 0 0 0 0 0 0 0 0 0 0 0 0 0 0 127 0" result="hardAlpha"/>
<feOffset dy="4"/>
<feGaussianBlur stdDeviation="44"/>
<feComposite in2="hardAlpha" operator="out"/>
<feColorMatrix type="matrix" values="0 0 0 0 0.855165 0 0 0 0 0.4375 0 0 0 0 1 0 0 0 1 0"/>
<feBlend mode="normal" in2="BackgroundImageFix" result="effect1_dropShadow_1_395"/>
<feBlend mode="normal" in="SourceGraphic" in2="effect1_dropShadow_1_395" result="shape"/>
</filter>
<filter id="filter1_d_1_395" x="97" y="270" width="487" height="80" filterUnits="userSpaceOnUse" color-interpolation-filters="sRGB">
<feFlood flood-opacity="0" result="BackgroundImageFix"/>
<feColorMatrix in="SourceAlpha" type="matrix" values="0 0 0 0 0 0 0 0 0 0 0 0 0 0 0 0 0 0 127 0" result="hardAlpha"/>
<feOffset/>
<feGaussianBlur stdDeviation="15.5"/>
<feComposite in2="hardAlpha" operator="out"/>
<feColorMatrix type="matrix" values="0 0 0 0 0.583457 0 0 0 0 0.390399 0 0 0 0 0.829167 0 0 0 0.4 0"/>
<feBlend mode="normal" in2="BackgroundImageFix" result="effect1_dropShadow_1_395"/>
<feBlend mode="normal" in="SourceGraphic" in2="effect1_dropShadow_1_395" result="shape"/>
</filter>
<linearGradient id="paint0_linear_1_395" x1="616.957" y1="19.3787" x2="436.291" y2="1064.81" gradientUnits="userSpaceOnUse">
<stop stop-color="#F328A5"/>
<stop offset="1" stop-color="#F38AB8"/>
</linearGradient>
<linearGradient id="paint1_linear_1_395" x1="-20.4611" y1="27.524" x2="257.658" y2="664.426" gradientUnits="userSpaceOnUse">
<stop stop-color="#FFB25B"/>
<stop offset="1" stop-color="#FF6D33"/>
</linearGradient>
<linearGradient id="paint2_linear_1_395" x1="88" y1="80" x2="690.015" y2="181.628" gradientUnits="userSpaceOnUse">
<stop stop-color="#F328A5"/>
<stop offset="1" stop-color="#9322D0"/>
</linearGradient>
<linearGradient id="paint3_linear_1_395" x1="95.0903" y1="299.781" x2="96.5717" y2="338.859" gradientUnits="userSpaceOnUse">
<stop stop-color="#FFC584"/>
<stop offset="1" stop-color="#FF672B"/>
</linearGradient>
<linearGradient id="paint4_linear_1_395" x1="389.242" y1="325.654" x2="132.242" y2="325.654" gradientUnits="userSpaceOnUse">
<stop stop-color="#FFA969"/>
<stop offset="0.510417" stop-color="#FFA969" stop-opacity="0.21"/>
<stop offset="1" stop-color="#FFA969" stop-opacity="0"/>
</linearGradient>
</defs>
</svg>
